<svg width="300" height="300" xmlns="http://www.w3.org/2000/svg" xmlns:xlink="http://www.w3.org/1999/xlink" overflow="hidden"><defs><filter id="fx0" x="-10%" y="-10%" width="120%" height="120%" filterUnits="userSpaceOnUse" primitiveUnits="userSpaceOnUse"><feComponentTransfer color-interpolation-filters="sRGB"><feFuncR type="discrete" tableValues="0 0"/><feFuncG type="discrete" tableValues="0 0"/><feFuncB type="discrete" tableValues="0 0"/><feFuncA type="linear" slope="0.4" intercept="0"/></feComponentTransfer><feGaussianBlur stdDeviation="1.77778 1.77778"/></filter><clipPath id="clip1"><rect x="936" y="221" width="300" height="300"/></clipPath><clipPath id="clip2"><rect x="46" y="25" width="211" height="252"/></clipPath><clipPath id="clip3"><rect x="0" y="0" width="302" height="302"/></clipPath><clipPath id="clip4"><rect x="6" y="6" width="289" height="289"/></clipPath><clipPath id="clip5"><rect x="6" y="6" width="289" height="289"/></clipPath><clipPath id="clip6"><rect x="6" y="6" width="289" height="289"/></clipPath><clipPath id="clip7"><rect x="940" y="224" width="288" height="288"/></clipPath><clipPath id="clip8"><rect x="940" y="224" width="288" height="288"/></clipPath><clipPath id="clip9"><rect x="940" y="224" width="288" height="288"/></clipPath></defs><g clip-path="url(#clip1)" transform="translate(-936 -221)"><g clip-path="url(#clip2)" filter="url(#fx0)" transform="translate(936 220)"><g clip-path="url(#clip3)"><g clip-path="url(#clip4)"><g clip-path="url(#clip5)"><g clip-path="url(#clip6)"><path d="M184.728 118.728C172.128 118.728 162.228 108.528 162.228 96.2284 162.228 83.9284 172.428 73.7284 184.728 73.7284 197.328 73.7284 207.228 83.9284 207.228 96.2284 207.228 108.528 197.028 118.728 184.728 118.728ZM235.428 82.1284C234.228 77.9284 232.728 74.0284 230.628 70.4284L235.428 56.3284 224.628 45.5284 210.528 50.3284C206.928 48.2284 203.028 46.7284 198.828 45.5284L192.228 32.3284 177.228 32.3284 170.628 45.5284C166.428 46.7284 162.528 48.2284 158.928 50.3284L144.828 45.5284 134.028 56.3284 138.828 70.4284C136.728 74.0284 135.228 77.9284 134.028 82.1284L120.828 88.7284 120.828 103.728 134.028 110.328C135.228 114.528 136.728 118.428 138.828 122.028L134.028 136.128 144.528 146.628 158.628 141.828C162.228 143.928 166.128 145.428 170.328 146.628L176.928 159.828 191.928 159.828 198.528 146.628C202.728 145.428 206.628 143.928 210.228 141.828L224.328 146.628 235.128 136.128 230.328 122.028C232.428 118.428 234.228 114.228 235.428 110.328L248.628 103.728 248.628 88.7284 235.428 82.1284Z" fill="#660E51"/><path d="M116.928 227.928C104.328 227.928 94.4284 217.728 94.4284 205.428 94.4284 192.828 104.628 182.928 116.928 182.928 129.528 182.928 139.428 193.128 139.428 205.428 139.428 217.728 129.528 227.928 116.928 227.928L116.928 227.928ZM162.828 179.628 167.628 165.528 156.828 154.728 142.728 159.528C139.128 157.428 134.928 155.928 131.028 154.728L124.428 141.528 109.428 141.528 102.828 154.728C98.6284 155.928 94.7284 157.428 91.1284 159.528L77.0284 154.728 66.5284 165.228 71.0284 179.328C68.9284 182.928 67.4284 187.128 66.2284 191.028L53.0284 197.628 53.0284 212.628 66.2284 219.228C67.4284 223.428 68.9284 227.328 71.0284 230.928L66.5284 245.028 77.0284 255.528 91.1284 251.028C94.7284 253.128 98.6284 254.628 102.828 255.828L109.428 269.028 124.428 269.028 131.028 255.828C135.228 254.628 139.128 253.128 142.728 251.028L156.828 255.828 167.328 245.028 162.828 231.228C164.928 227.628 166.428 223.728 167.628 219.528L180.828 212.928 180.828 197.928 167.628 191.328C166.428 187.128 164.928 183.228 162.828 179.628Z" fill="#660E51"/></g></g></g></g></g><g clip-path="url(#clip7)"><g clip-path="url(#clip8)"><g clip-path="url(#clip9)"><path d="M1117.9 335.9C1105.3 335.9 1095.4 325.7 1095.4 313.4 1095.4 301.1 1105.6 290.9 1117.9 290.9 1130.5 290.9 1140.4 301.1 1140.4 313.4 1140.4 325.7 1130.2 335.9 1117.9 335.9ZM1168.6 299.3C1167.4 295.1 1165.9 291.2 1163.8 287.6L1168.6 273.5 1157.8 262.7 1143.7 267.5C1140.1 265.4 1136.2 263.9 1132 262.7L1125.4 249.5 1110.4 249.5 1103.8 262.7C1099.6 263.9 1095.7 265.4 1092.1 267.5L1078 262.7 1067.2 273.5 1072 287.6C1069.9 291.2 1068.4 295.1 1067.2 299.3L1054 305.9 1054 320.9 1067.2 327.5C1068.4 331.7 1069.9 335.6 1072 339.2L1067.2 353.3 1077.7 363.8 1091.8 359C1095.4 361.1 1099.3 362.6 1103.5 363.8L1110.1 377 1125.1 377 1131.7 363.8C1135.9 362.6 1139.8 361.1 1143.4 359L1157.5 363.8 1168.3 353.3 1163.5 339.2C1165.6 335.6 1167.4 331.4 1168.6 327.5L1181.8 320.9 1181.8 305.9 1168.6 299.3Z" fill="#660E51"/><path d="M1050.1 445.1C1037.5 445.1 1027.6 434.9 1027.6 422.6 1027.6 410 1037.8 400.1 1050.1 400.1 1062.7 400.1 1072.6 410.3 1072.6 422.6 1072.6 434.9 1062.7 445.1 1050.1 445.1L1050.1 445.1ZM1096 396.8 1100.8 382.7 1090 371.9 1075.9 376.7C1072.3 374.6 1068.1 373.1 1064.2 371.9L1057.6 358.7 1042.6 358.7 1036 371.9C1031.8 373.1 1027.9 374.6 1024.3 376.7L1010.2 371.9 999.7 382.4 1004.2 396.5C1002.1 400.1 1000.6 404.3 999.4 408.2L986.2 414.8 986.2 429.8 999.4 436.4C1000.6 440.6 1002.1 444.5 1004.2 448.1L999.7 462.2 1010.2 472.7 1024.3 468.2C1027.9 470.3 1031.8 471.8 1036 473L1042.6 486.2 1057.6 486.2 1064.2 473C1068.4 471.8 1072.3 470.3 1075.9 468.2L1090 473 1100.5 462.2 1096 448.4C1098.1 444.8 1099.6 440.9 1100.8 436.7L1114 430.1 1114 415.1 1100.8 408.5C1099.6 404.3 1098.1 400.4 1096 396.8Z" fill="#660E51"/></g></g></g></g></svg>