<svg width="253" height="253" xmlns="http://www.w3.org/2000/svg" xmlns:xlink="http://www.w3.org/1999/xlink" overflow="hidden"><defs><filter id="fx0" x="-10%" y="-10%" width="120%" height="120%" filterUnits="userSpaceOnUse" primitiveUnits="userSpaceOnUse"><feComponentTransfer color-interpolation-filters="sRGB"><feFuncR type="discrete" tableValues="0 0"/><feFuncG type="discrete" tableValues="0 0"/><feFuncB type="discrete" tableValues="0 0"/><feFuncA type="linear" slope="0.4" intercept="0"/></feComponentTransfer><feGaussianBlur stdDeviation="1.77778 1.77778"/></filter><clipPath id="clip1"><rect x="119" y="409" width="253" height="253"/></clipPath><clipPath id="clip2"><rect x="23" y="23" width="209" height="209"/></clipPath><clipPath id="clip3"><rect x="0" y="0" width="255" height="255"/></clipPath><clipPath id="clip4"><rect x="6" y="6" width="242" height="242"/></clipPath><clipPath id="clip5"><rect x="6" y="6" width="242" height="242"/></clipPath><clipPath id="clip6"><rect x="6" y="6" width="242" height="242"/></clipPath><clipPath id="clip7"><rect x="122" y="412" width="241" height="241"/></clipPath><clipPath id="clip8"><rect x="122" y="412" width="241" height="241"/></clipPath><clipPath id="clip9"><rect x="122" y="412" width="241" height="241"/></clipPath></defs><g clip-path="url(#clip1)" transform="translate(-119 -409)"><g clip-path="url(#clip2)" filter="url(#fx0)" transform="translate(118 408)"><g clip-path="url(#clip3)"><g clip-path="url(#clip4)"><g clip-path="url(#clip5)"><g clip-path="url(#clip6)"><path d="M154.943 161.972C123.563 154.441 102.475 170.508 101.471 171.261 99.2118 173.018 98.9607 176.031 100.467 178.29 101.471 179.545 102.977 180.298 104.484 180.298 105.488 180.298 106.743 180.047 107.496 179.294 107.747 179.043 125.571 165.487 152.433 171.763 155.194 172.516 157.956 170.759 158.458 167.997 159.462 165.236 157.704 162.474 154.943 161.972Z" fill="#B3324F"/><path d="M102.224 119.044C102.224 127.363 95.4806 134.107 87.1618 134.107 78.843 134.107 72.0993 127.363 72.0993 119.044 72.0993 110.725 78.843 103.982 87.1618 103.982 95.4806 103.982 102.224 110.725 102.224 119.044Z" fill="#B3324F"/><path d="M75.1118 91.4295 100.216 88.9191C102.977 88.668 104.986 86.1576 104.735 83.3961 104.484 80.6347 101.973 78.6264 99.2118 78.8774L74.1076 81.3878C71.3461 81.6388 69.3378 84.1493 69.5889 86.9107 69.8399 89.4211 72.0993 91.4295 74.6097 91.4295 74.8607 91.4295 74.8607 91.4295 75.1118 91.4295Z" fill="#B3324F"/><path d="M182.558 119.044C182.558 127.363 175.814 134.107 167.495 134.107 159.176 134.107 152.433 127.363 152.433 119.044 152.433 110.725 159.176 103.982 167.495 103.982 175.814 103.982 182.558 110.725 182.558 119.044Z" fill="#B3324F"/><path d="M180.549 81.3878 155.445 78.8774C152.684 78.6264 150.173 80.6347 149.922 83.3961 149.671 86.1576 151.679 88.668 154.441 88.9191L179.545 91.4295C179.796 91.4295 179.796 91.4295 180.047 91.4295 182.558 91.4295 184.817 89.4211 185.068 86.9107 185.319 84.1493 183.311 81.6388 180.549 81.3878Z" fill="#B3324F"/><path d="M127.328 41.9743C174.273 41.9743 212.683 80.3836 212.683 127.328 212.683 174.273 174.273 212.683 127.328 212.683 80.3836 212.683 41.9743 174.273 41.9743 127.328 41.9743 80.3836 80.3836 41.9743 127.328 41.9743M127.328 31.9326C74.6097 31.9326 31.9326 74.6097 31.9326 127.328 31.9326 180.047 74.6097 222.724 127.328 222.724 180.047 222.724 222.724 180.047 222.724 127.328 222.724 74.6097 180.047 31.9326 127.328 31.9326L127.328 31.9326Z" fill="#B3324F"/></g></g></g></g></g><g clip-path="url(#clip7)"><g clip-path="url(#clip8)"><g clip-path="url(#clip9)"><path d="M270.115 567.144C238.734 559.612 217.647 575.679 216.643 576.432 214.383 578.19 214.132 581.202 215.639 583.461 216.643 584.717 218.149 585.47 219.655 585.47 220.659 585.47 221.915 585.219 222.668 584.466 222.919 584.215 240.743 570.658 267.604 576.934 270.366 577.688 273.127 575.93 273.629 573.169 274.633 570.407 272.876 567.646 270.115 567.144Z" fill="#B3324F"/><path d="M217.396 524.216C217.396 532.534 210.652 539.278 202.333 539.278 194.015 539.278 187.271 532.534 187.271 524.216 187.271 515.897 194.015 509.153 202.333 509.153 210.652 509.153 217.396 515.897 217.396 524.216Z" fill="#B3324F"/><path d="M190.283 496.601 215.388 494.091C218.149 493.84 220.157 491.329 219.906 488.568 219.655 485.806 217.145 483.798 214.383 484.049L189.279 486.559C186.518 486.81 184.509 489.321 184.76 492.082 185.011 494.593 187.271 496.601 189.781 496.601 190.032 496.601 190.032 496.601 190.283 496.601Z" fill="#B3324F"/><path d="M297.729 524.216C297.729 532.534 290.985 539.278 282.667 539.278 274.348 539.278 267.604 532.534 267.604 524.216 267.604 515.897 274.348 509.153 282.667 509.153 290.985 509.153 297.729 515.897 297.729 524.216Z" fill="#B3324F"/><path d="M295.721 486.559 270.617 484.049C267.855 483.798 265.345 485.806 265.094 488.568 264.843 491.329 266.851 493.84 269.612 494.091L294.717 496.601C294.968 496.601 294.968 496.601 295.219 496.601 297.729 496.601 299.989 494.593 300.24 492.082 300.491 489.321 298.482 486.81 295.721 486.559Z" fill="#B3324F"/><path d="M242.5 447.146C289.445 447.146 327.854 485.555 327.854 532.5 327.854 579.445 289.445 617.854 242.5 617.854 195.555 617.854 157.146 579.445 157.146 532.5 157.146 485.555 195.555 447.146 242.5 447.146M242.5 437.104C189.781 437.104 147.104 479.781 147.104 532.5 147.104 585.219 189.781 627.896 242.5 627.896 295.219 627.896 337.896 585.219 337.896 532.5 337.896 479.781 295.219 437.104 242.5 437.104L242.5 437.104Z" fill="#B3324F"/></g></g></g></g></svg>