<svg width="388" height="388" xmlns="http://www.w3.org/2000/svg" xmlns:xlink="http://www.w3.org/1999/xlink" overflow="hidden"><defs><filter id="fx0" x="-10%" y="-10%" width="120%" height="120%" filterUnits="userSpaceOnUse" primitiveUnits="userSpaceOnUse"><feComponentTransfer color-interpolation-filters="sRGB"><feFuncR type="discrete" tableValues="0 0"/><feFuncG type="discrete" tableValues="0 0"/><feFuncB type="discrete" tableValues="0 0"/><feFuncA type="linear" slope="0.4" intercept="0"/></feComponentTransfer><feGaussianBlur stdDeviation="1.77778 1.77778"/></filter><clipPath id="clip1"><rect x="162" y="146" width="388" height="388"/></clipPath><clipPath id="clip2"><rect x="17" y="85" width="355" height="219"/></clipPath><clipPath id="clip3"><rect x="0" y="0" width="390" height="390"/></clipPath><clipPath id="clip4"><rect x="6" y="6" width="377" height="377"/></clipPath><clipPath id="clip5"><rect x="6" y="6" width="377" height="377"/></clipPath><clipPath id="clip6"><rect x="6" y="6" width="377" height="377"/></clipPath><clipPath id="clip7"><rect x="165" y="149" width="376" height="376"/></clipPath><clipPath id="clip8"><rect x="165" y="149" width="376" height="376"/></clipPath><clipPath id="clip9"><rect x="165" y="149" width="376" height="376"/></clipPath></defs><g clip-path="url(#clip1)" transform="translate(-162 -146)"><g clip-path="url(#clip2)" filter="url(#fx0)" transform="translate(161 145)"><g clip-path="url(#clip3)"><g clip-path="url(#clip4)"><g clip-path="url(#clip5)"><g clip-path="url(#clip6)"><path d="M182.687 290.395C180.728 290.395 178.378 290.003 176.812 288.437 173.678 285.695 173.287 280.603 176.028 277.47L191.303 259.845C194.045 256.712 199.137 256.32 202.27 259.062 205.403 261.803 205.795 266.895 203.053 270.028L187.778 287.653C186.603 289.22 184.645 290.003 182.687 290.395Z" fill="#660E51"/><path d="M158.795 281.387C156.053 281.778 153.703 280.995 151.353 279.037 147.437 275.512 147.045 269.245 150.57 265.328L168.587 244.57C172.112 240.653 178.378 240.262 182.295 243.787 186.212 247.312 186.603 253.578 183.078 257.495L165.062 278.253C163.495 280.212 161.145 281.387 158.795 281.387Z" fill="#660E51"/><path d="M134.12 266.895C130.987 267.287 127.853 266.112 125.503 264.153 120.803 259.845 120.02 252.403 124.328 247.703L142.345 226.945C146.653 222.245 154.095 221.462 158.795 225.77 163.495 230.078 164.278 237.52 159.97 242.22L141.953 262.978C139.995 265.328 136.862 266.895 134.12 266.895Z" fill="#660E51"/><path d="M105.528 252.403C102.395 252.795 99.2618 251.62 96.9118 249.662 92.2118 245.353 91.4284 237.912 95.7368 233.212L116.495 209.712C120.803 205.012 128.245 204.228 132.945 208.537 137.645 212.845 138.428 220.287 134.12 224.987L113.362 248.487C111.012 250.837 108.27 252.012 105.528 252.403Z" fill="#660E51"/><path d="M24.8451 166.237 55.0034 184.645C58.5284 186.995 63.6201 185.82 65.5784 181.903L102.003 121.587C104.353 118.062 103.178 112.97 99.2618 111.012L69.4951 92.6034 24.8451 166.237Z" fill="#660E51"/><path d="M278.645 217.545 215.587 163.495 211.278 159.578 184.253 190.52C180.337 195.22 174.853 197.962 168.587 198.353 167.803 198.353 167.02 198.353 166.628 198.353 160.753 198.353 155.27 196.395 151.353 192.478 141.562 183.862 140.778 168.978 149.003 159.187L172.112 132.553C154.095 130.203 130.987 139.603 107.095 127.853L73.0201 184.253 99.6534 215.195 109.837 203.445C113.362 199.137 118.845 196.787 124.72 196.787L124.72 196.787C129.42 196.787 134.12 198.353 137.645 201.487 141.953 205.012 143.912 210.103 144.303 215.587 146.262 214.803 148.612 214.412 150.962 214.412 155.662 214.412 160.362 215.978 163.887 219.112 168.195 223.028 170.545 228.12 170.545 233.603 172.112 233.212 174.07 232.82 175.637 232.82L175.637 232.82C179.945 232.82 183.862 234.387 187.387 237.128 190.912 240.262 192.87 244.57 193.262 249.27 194.437 248.878 196.003 248.487 197.57 248.487L197.57 248.487C201.487 248.487 205.012 249.662 207.753 252.403 210.887 255.145 212.845 259.062 213.237 262.978 213.628 267.287 212.062 271.203 209.32 274.337L196.003 289.612 201.487 293.92C204.228 295.487 207.362 296.662 210.887 296.27 219.503 295.487 225.77 288.045 224.987 279.428 224.987 279.428 224.987 279.037 224.987 279.037 226.162 279.428 227.728 279.428 228.903 279.428 237.52 278.645 243.787 271.203 243.003 262.587 243.003 262.587 243.003 262.195 243.003 262.195 244.178 262.587 245.745 262.587 246.92 262.587 255.537 261.803 261.803 254.362 261.02 245.745 261.02 244.962 260.628 244.178 260.628 243.395 262.978 244.57 265.72 245.353 268.853 244.962 277.47 244.178 283.737 236.737 282.953 228.12 283.345 223.812 281.387 220.287 278.645 217.545Z" fill="#660E51"/><path d="M364.812 166.237 334.653 184.645C331.128 186.995 326.037 185.82 324.078 181.903L287.653 121.587C285.303 118.062 286.478 112.97 290.395 111.012L320.553 92.6034 364.812 166.237Z" fill="#660E51"/><path d="M282.953 129.42C250.445 141.17 226.945 129.812 200.703 124.72 200.312 124.72 198.745 124.328 198.745 124.328 194.045 123.937 188.953 125.503 185.428 129.42L154.487 164.67C148.612 171.328 149.395 181.12 156.053 186.603 159.578 189.345 163.495 190.912 167.803 190.52 171.72 190.128 175.637 188.562 178.378 185.037 178.378 185.037 210.495 148.22 210.495 148.22L283.737 211.278 283.737 211.278 283.737 211.278C285.695 213.237 286.478 214.02 288.045 216.37L316.245 183.862 282.953 129.42Z" fill="#660E51"/></g></g></g></g></g><g clip-path="url(#clip7)"><g clip-path="url(#clip8)"><g clip-path="url(#clip9)"><path d="M340.858 432.567C338.9 432.567 336.55 432.175 334.983 430.608 331.85 427.867 331.458 422.775 334.2 419.642L349.475 402.017C352.217 398.883 357.308 398.492 360.442 401.233 363.575 403.975 363.967 409.067 361.225 412.2L345.95 429.825C344.775 431.392 342.817 432.175 340.858 432.567Z" fill="#660E51"/><path d="M316.967 423.558C314.225 423.95 311.875 423.167 309.525 421.208 305.608 417.683 305.217 411.417 308.742 407.5L326.758 386.742C330.283 382.825 336.55 382.433 340.467 385.958 344.383 389.483 344.775 395.75 341.25 399.667L323.233 420.425C321.667 422.383 319.317 423.558 316.967 423.558Z" fill="#660E51"/><path d="M292.292 409.067C289.158 409.458 286.025 408.283 283.675 406.325 278.975 402.017 278.192 394.575 282.5 389.875L300.517 369.117C304.825 364.417 312.267 363.633 316.967 367.942 321.667 372.25 322.45 379.692 318.142 384.392L300.125 405.15C298.167 407.5 295.033 409.067 292.292 409.067Z" fill="#660E51"/><path d="M263.7 394.575C260.567 394.967 257.433 393.792 255.083 391.833 250.383 387.525 249.6 380.083 253.908 375.383L274.667 351.883C278.975 347.183 286.417 346.4 291.117 350.708 295.817 355.017 296.6 362.458 292.292 367.158L271.533 390.658C269.183 393.008 266.442 394.183 263.7 394.575Z" fill="#660E51"/><path d="M183.017 308.408 213.175 326.817C216.7 329.167 221.792 327.992 223.75 324.075L260.175 263.758C262.525 260.233 261.35 255.142 257.433 253.183L227.667 234.775 183.017 308.408Z" fill="#660E51"/><path d="M436.817 359.717 373.758 305.667 369.45 301.75 342.425 332.692C338.508 337.392 333.025 340.133 326.758 340.525 325.975 340.525 325.192 340.525 324.8 340.525 318.925 340.525 313.442 338.567 309.525 334.65 299.733 326.033 298.95 311.15 307.175 301.358L330.283 274.725C312.267 272.375 289.158 281.775 265.267 270.025L231.192 326.425 257.825 357.367 268.008 345.617C271.533 341.308 277.017 338.958 282.892 338.958L282.892 338.958C287.592 338.958 292.292 340.525 295.817 343.658 300.125 347.183 302.083 352.275 302.475 357.758 304.433 356.975 306.783 356.583 309.133 356.583 313.833 356.583 318.533 358.15 322.058 361.283 326.367 365.2 328.717 370.292 328.717 375.775 330.283 375.383 332.242 374.992 333.808 374.992L333.808 374.992C338.117 374.992 342.033 376.558 345.558 379.3 349.083 382.433 351.042 386.742 351.433 391.442 352.608 391.05 354.175 390.658 355.742 390.658L355.742 390.658C359.658 390.658 363.183 391.833 365.925 394.575 369.058 397.317 371.017 401.233 371.408 405.15 371.8 409.458 370.233 413.375 367.492 416.508L354.175 431.783 359.658 436.092C362.4 437.658 365.533 438.833 369.058 438.442 377.675 437.658 383.942 430.217 383.158 421.6 383.158 421.6 383.158 421.208 383.158 421.208 384.333 421.6 385.9 421.6 387.075 421.6 395.692 420.817 401.958 413.375 401.175 404.758 401.175 404.758 401.175 404.367 401.175 404.367 402.35 404.758 403.917 404.758 405.092 404.758 413.708 403.975 419.975 396.533 419.192 387.917 419.192 387.133 418.8 386.35 418.8 385.567 421.15 386.742 423.892 387.525 427.025 387.133 435.642 386.35 441.908 378.908 441.125 370.292 441.517 365.983 439.558 362.458 436.817 359.717Z" fill="#660E51"/><path d="M522.983 308.408 492.825 326.817C489.3 329.167 484.208 327.992 482.25 324.075L445.825 263.758C443.475 260.233 444.65 255.142 448.567 253.183L478.725 234.775 522.983 308.408Z" fill="#660E51"/><path d="M441.125 271.592C408.617 283.342 385.117 271.983 358.875 266.892 358.483 266.892 356.917 266.5 356.917 266.5 352.217 266.108 347.125 267.675 343.6 271.592L312.658 306.842C306.783 313.5 307.567 323.292 314.225 328.775 317.75 331.517 321.667 333.083 325.975 332.692 329.892 332.3 333.808 330.733 336.55 327.208 336.55 327.208 368.667 290.392 368.667 290.392L441.908 353.45 441.908 353.45 441.908 353.45C443.867 355.408 444.65 356.192 446.217 358.542L474.417 326.033 441.125 271.592Z" fill="#660E51"/></g></g></g></g></svg>