<svg width="264" height="253" xmlns="http://www.w3.org/2000/svg" xmlns:xlink="http://www.w3.org/1999/xlink" overflow="hidden"><defs><filter id="fx0" x="-10%" y="-10%" width="120%" height="120%" filterUnits="userSpaceOnUse" primitiveUnits="userSpaceOnUse"><feComponentTransfer color-interpolation-filters="sRGB"><feFuncR type="discrete" tableValues="0 0"/><feFuncG type="discrete" tableValues="0 0"/><feFuncB type="discrete" tableValues="0 0"/><feFuncA type="linear" slope="0.4" intercept="0"/></feComponentTransfer><feGaussianBlur stdDeviation="1.77778 1.77778"/></filter><clipPath id="clip1"><rect x="117" y="210" width="264" height="253"/></clipPath><clipPath id="clip2"><rect x="23" y="25" width="221" height="205"/></clipPath><clipPath id="clip3"><rect x="0" y="0" width="266" height="255"/></clipPath><clipPath id="clip4"><rect x="6" y="6" width="253" height="242"/></clipPath><clipPath id="clip5"><rect x="6" y="6" width="253" height="242"/></clipPath><clipPath id="clip6"><rect x="6" y="6" width="253" height="242"/></clipPath><clipPath id="clip7"><rect x="120" y="213" width="252" height="241"/></clipPath><clipPath id="clip8"><rect x="120" y="213" width="252" height="241"/></clipPath><clipPath id="clip9"><rect x="120" y="213" width="252" height="241"/></clipPath></defs><g clip-path="url(#clip1)" transform="translate(-117 -210)"><g clip-path="url(#clip2)" filter="url(#fx0)" transform="translate(116 209)"><g clip-path="url(#clip3)"><g clip-path="url(#clip4)"><g clip-path="url(#clip5)"><g clip-path="url(#clip6)"><path d="M218.406 90.375 218.406 80.3333 160.667 80.3333 160.667 27.6146 150.625 27.6146 150.625 80.3333 90.375 80.3333 90.375 27.6146 80.3333 27.6146 80.3333 80.3333 22.5938 80.3333 22.5938 90.375 80.3333 90.375 80.3333 150.625 22.5938 150.625 22.5938 160.667 80.3333 160.667 80.3333 213.385 90.375 213.385 90.375 160.667 150.625 160.667 150.625 213.385 160.667 213.385 160.667 160.667 218.406 160.667 218.406 150.625 160.667 150.625 160.667 90.375ZM150.625 150.625 90.375 150.625 90.375 90.375 150.625 90.375Z" fill="#B3324F" transform="matrix(1.04564 0 0 1 6.82843 6.82843)"/><path d="M50.2083 168.198C39.1166 168.198 30.125 177.189 30.125 188.281 30.125 199.373 39.1166 208.365 50.2083 208.365 61.3001 208.365 70.2917 199.373 70.2917 188.281 70.2791 177.195 61.2948 168.21 50.2083 168.198ZM50.2083 198.323C44.6626 198.323 40.1667 193.827 40.1667 188.281 40.1667 182.736 44.6626 178.24 50.2083 178.24 55.7541 178.24 60.25 182.736 60.25 188.281 60.25 193.827 55.7541 198.323 50.2083 198.323Z" fill="#B3324F" transform="matrix(1.04564 0 0 1 6.82843 6.82843)"/><path d="M190.792 168.198C179.7 168.198 170.708 177.189 170.708 188.281 170.708 199.373 179.7 208.365 190.792 208.365 201.883 208.365 210.875 199.373 210.875 188.281 210.862 177.195 201.878 168.21 190.792 168.198ZM190.792 198.323C185.246 198.323 180.75 193.827 180.75 188.281 180.75 182.736 185.246 178.24 190.792 178.24 196.337 178.24 200.833 182.736 200.833 188.281 200.833 193.827 196.337 198.323 190.792 198.323Z" fill="#B3324F" transform="matrix(1.04564 0 0 1 6.82843 6.82843)"/><path d="M50.2083 72.8021C61.3001 72.8021 70.2917 63.8105 70.2917 52.7188 70.2917 41.627 61.3001 32.6354 50.2083 32.6354 39.1166 32.6354 30.125 41.627 30.125 52.7188 30.1376 63.8053 39.1218 72.7895 50.2083 72.8021ZM50.2083 42.6771C55.7541 42.6771 60.25 47.173 60.25 52.7188 60.25 58.2645 55.7541 62.7604 50.2083 62.7604 44.6626 62.7604 40.1667 58.2645 40.1667 52.7188 40.1667 47.173 44.6626 42.6771 50.2083 42.6771Z" fill="#B3324F" transform="matrix(1.04564 0 0 1 6.82843 6.82843)"/><path d="M101.888 132.013 108.987 139.112 120.5 127.599 132.013 139.112 139.112 132.013 127.599 120.5 139.112 108.987 132.013 101.888 120.5 113.401 108.987 101.888 101.888 108.987 113.401 120.5 101.888 132.013Z" fill="#B3324F" transform="matrix(1.04564 0 0 1 6.82843 6.82843)"/><path d="M179.279 71.331 190.792 59.8182 202.304 71.331 209.404 64.2315 197.891 52.7188 209.404 41.206 202.304 34.1065 190.792 45.6193 179.279 34.1065 172.179 41.206 183.692 52.7188 172.179 64.2315 179.279 71.331Z" fill="#B3324F" transform="matrix(1.04564 0 0 1 6.82843 6.82843)"/></g></g></g></g></g><g clip-path="url(#clip7)"><g clip-path="url(#clip8)"><g clip-path="url(#clip9)"><path d="M218.406 90.375 218.406 80.3333 160.667 80.3333 160.667 27.6146 150.625 27.6146 150.625 80.3333 90.375 80.3333 90.375 27.6146 80.3333 27.6146 80.3333 80.3333 22.5938 80.3333 22.5938 90.375 80.3333 90.375 80.3333 150.625 22.5938 150.625 22.5938 160.667 80.3333 160.667 80.3333 213.385 90.375 213.385 90.375 160.667 150.625 160.667 150.625 213.385 160.667 213.385 160.667 160.667 218.406 160.667 218.406 150.625 160.667 150.625 160.667 90.375ZM150.625 150.625 90.375 150.625 90.375 90.375 150.625 90.375Z" fill="#B3324F" transform="matrix(1.04564 0 0 1 120 213)"/><path d="M50.2083 168.198C39.1166 168.198 30.125 177.189 30.125 188.281 30.125 199.373 39.1166 208.365 50.2083 208.365 61.3001 208.365 70.2917 199.373 70.2917 188.281 70.2791 177.195 61.2948 168.21 50.2083 168.198ZM50.2083 198.323C44.6626 198.323 40.1667 193.827 40.1667 188.281 40.1667 182.736 44.6626 178.24 50.2083 178.24 55.7541 178.24 60.25 182.736 60.25 188.281 60.25 193.827 55.7541 198.323 50.2083 198.323Z" fill="#B3324F" transform="matrix(1.04564 0 0 1 120 213)"/><path d="M190.792 168.198C179.7 168.198 170.708 177.189 170.708 188.281 170.708 199.373 179.7 208.365 190.792 208.365 201.883 208.365 210.875 199.373 210.875 188.281 210.862 177.195 201.878 168.21 190.792 168.198ZM190.792 198.323C185.246 198.323 180.75 193.827 180.75 188.281 180.75 182.736 185.246 178.24 190.792 178.24 196.337 178.24 200.833 182.736 200.833 188.281 200.833 193.827 196.337 198.323 190.792 198.323Z" fill="#B3324F" transform="matrix(1.04564 0 0 1 120 213)"/><path d="M50.2083 72.8021C61.3001 72.8021 70.2917 63.8105 70.2917 52.7188 70.2917 41.627 61.3001 32.6354 50.2083 32.6354 39.1166 32.6354 30.125 41.627 30.125 52.7188 30.1376 63.8053 39.1218 72.7895 50.2083 72.8021ZM50.2083 42.6771C55.7541 42.6771 60.25 47.173 60.25 52.7188 60.25 58.2645 55.7541 62.7604 50.2083 62.7604 44.6626 62.7604 40.1667 58.2645 40.1667 52.7188 40.1667 47.173 44.6626 42.6771 50.2083 42.6771Z" fill="#B3324F" transform="matrix(1.04564 0 0 1 120 213)"/><path d="M101.888 132.013 108.987 139.112 120.5 127.599 132.013 139.112 139.112 132.013 127.599 120.5 139.112 108.987 132.013 101.888 120.5 113.401 108.987 101.888 101.888 108.987 113.401 120.5 101.888 132.013Z" fill="#B3324F" transform="matrix(1.04564 0 0 1 120 213)"/><path d="M179.279 71.331 190.792 59.8182 202.304 71.331 209.404 64.2315 197.891 52.7188 209.404 41.206 202.304 34.1065 190.792 45.6193 179.279 34.1065 172.179 41.206 183.692 52.7188 172.179 64.2315 179.279 71.331Z" fill="#B3324F" transform="matrix(1.04564 0 0 1 120 213)"/></g></g></g></g></svg>