<svg width="253" height="252" xmlns="http://www.w3.org/2000/svg" xmlns:xlink="http://www.w3.org/1999/xlink" overflow="hidden"><defs><filter id="fx0" x="-10%" y="-10%" width="120%" height="120%" filterUnits="userSpaceOnUse" primitiveUnits="userSpaceOnUse"><feComponentTransfer color-interpolation-filters="sRGB"><feFuncR type="discrete" tableValues="0 0"/><feFuncG type="discrete" tableValues="0 0"/><feFuncB type="discrete" tableValues="0 0"/><feFuncA type="linear" slope="0.4" intercept="0"/></feComponentTransfer><feGaussianBlur stdDeviation="1.77778 1.77778"/></filter><clipPath id="clip1"><rect x="170" y="129" width="253" height="252"/></clipPath><clipPath id="clip2"><rect x="34" y="31" width="189" height="192"/></clipPath><clipPath id="clip3"><rect x="0" y="0" width="255" height="254"/></clipPath><clipPath id="clip4"><rect x="6" y="6" width="242" height="241"/></clipPath><clipPath id="clip5"><rect x="6" y="6" width="242" height="241"/></clipPath><clipPath id="clip6"><rect x="6" y="6" width="242" height="241"/></clipPath><clipPath id="clip7"><rect x="173" y="132" width="241" height="240"/></clipPath><clipPath id="clip8"><rect x="173" y="132" width="241" height="240"/></clipPath><clipPath id="clip9"><rect x="173" y="132" width="241" height="240"/></clipPath></defs><g clip-path="url(#clip1)" transform="translate(-170 -129)"><g clip-path="url(#clip2)" filter="url(#fx0)" transform="translate(169 128)"><g clip-path="url(#clip3)"><g clip-path="url(#clip4)"><g clip-path="url(#clip5)"><g clip-path="url(#clip6)"><path d="M50 32.5 35 32.5 35 207.5 207.5 207.5 207.5 192.5 50 192.5 50 32.5Z" fill="#660E51" transform="matrix(1.00417 0 0 1 6.82843 6.82843)"/><path d="M170 32.5 207.5 32.5 207.5 177.5 170 177.5Z" fill="#660E51" transform="matrix(-1.00417 -1.22465e-16 1.22975e-16 -1 385.901 216.828)"/><path d="M117.5 82.5 155 82.5 155 177.5 117.5 177.5Z" fill="#660E51" transform="matrix(-1.00417 -1.22465e-16 1.22975e-16 -1 280.464 266.828)"/><path d="M65 127.5 102.5 127.5 102.5 177.5 65 177.5Z" fill="#660E51" transform="matrix(-1.00417 -1.22465e-16 1.22975e-16 -1 175.026 311.828)"/><path d="M145 66.85 145 32.5 110.65 32.5 124.3 46.15 63.975 106.475 71.025 113.525 131.35 53.225 145 66.85Z" fill="#660E51" transform="matrix(1.00417 0 0 1 6.82843 6.82843)"/></g></g></g></g></g><g clip-path="url(#clip7)"><g clip-path="url(#clip8)"><g clip-path="url(#clip9)"><path d="M50 32.5 35 32.5 35 207.5 207.5 207.5 207.5 192.5 50 192.5 50 32.5Z" fill="#660E51" transform="matrix(1.00417 0 0 1 173 132)"/><path d="M170 32.5 207.5 32.5 207.5 177.5 170 177.5Z" fill="#660E51" transform="matrix(-1.00417 -1.22465e-16 1.22975e-16 -1 552.073 342)"/><path d="M117.5 82.5 155 82.5 155 177.5 117.5 177.5Z" fill="#660E51" transform="matrix(-1.00417 -1.22465e-16 1.22975e-16 -1 446.635 392)"/><path d="M65 127.5 102.5 127.5 102.5 177.5 65 177.5Z" fill="#660E51" transform="matrix(-1.00417 -1.22465e-16 1.22975e-16 -1 341.198 437)"/><path d="M145 66.85 145 32.5 110.65 32.5 124.3 46.15 63.975 106.475 71.025 113.525 131.35 53.225 145 66.85Z" fill="#660E51" transform="matrix(1.00417 0 0 1 173 132)"/></g></g></g></g></svg>