<svg width="244" height="244" xmlns="http://www.w3.org/2000/svg" xmlns:xlink="http://www.w3.org/1999/xlink" overflow="hidden"><defs><filter id="fx0" x="-10%" y="-10%" width="120%" height="120%" filterUnits="userSpaceOnUse" primitiveUnits="userSpaceOnUse"><feComponentTransfer color-interpolation-filters="sRGB"><feFuncR type="discrete" tableValues="0 0"/><feFuncG type="discrete" tableValues="0 0"/><feFuncB type="discrete" tableValues="0 0"/><feFuncA type="linear" slope="0.4" intercept="0"/></feComponentTransfer><feGaussianBlur stdDeviation="1.77778 1.77778"/></filter><clipPath id="clip1"><rect x="517" y="226" width="244" height="244"/></clipPath><clipPath id="clip2"><rect x="3" y="9" width="239" height="227"/></clipPath><clipPath id="clip3"><rect x="0" y="0" width="245" height="246"/></clipPath><clipPath id="clip4"><rect x="6" y="6" width="232" height="233"/></clipPath><clipPath id="clip5"><rect x="6" y="6" width="232" height="233"/></clipPath><clipPath id="clip6"><rect x="6" y="6" width="232" height="233"/></clipPath><clipPath id="clip7"><rect x="521" y="229" width="231" height="232"/></clipPath><clipPath id="clip8"><rect x="521" y="229" width="231" height="232"/></clipPath><clipPath id="clip9"><rect x="521" y="229" width="231" height="232"/></clipPath></defs><g clip-path="url(#clip1)" transform="translate(-517 -226)"><g clip-path="url(#clip2)" filter="url(#fx0)" transform="translate(517 225)"><g clip-path="url(#clip3)"><g clip-path="url(#clip4)"><g clip-path="url(#clip5)"><g clip-path="url(#clip6)"><path d="M151.113 147.503C152.316 145.097 151.594 142.209 149.188 141.006 146.781 139.803 143.894 140.525 142.691 142.931L133.066 160.016 139.562 134.269C140.284 131.622 138.6 128.975 135.953 128.494 133.306 127.772 130.659 129.456 130.178 132.103L124.644 154.241 124.644 130.178C124.644 127.531 122.478 125.366 119.831 125.366 117.184 125.366 115.019 127.531 115.019 130.178L115.019 155.925 109.484 132.103C109.003 129.456 106.356 128.012 103.709 128.494 101.062 128.975 99.6188 131.622 100.1 134.269L106.838 162.903C106.597 166.272 105.875 169.641 105.153 172.528 105.153 172.528 105.153 172.287 104.912 172.287 100.822 166.031 94.325 160.497 88.0687 158.812 85.6625 158.091 83.2562 159.534 82.5344 161.941 81.8125 164.347 83.2562 166.753 85.6625 167.475 88.7906 168.197 91.6781 172.769 94.8063 177.581 98.6562 183.597 103.469 190.575 110.688 194.666L110.688 220.412 131.863 220.412 131.863 193.222C139.803 189.131 140.766 172.047 141.006 165.55L151.113 147.503Z" fill="#660E51" transform="matrix(1 0 0 1.00433 6.82843 6.82843)"/><path d="M66.1719 149.428 87.1063 149.669C87.1063 149.669 87.1063 149.669 87.1063 149.669 89.7531 149.669 91.9188 147.503 91.9188 144.856 91.9188 142.209 89.7531 140.044 87.1063 140.044L67.6156 139.803 93.1219 133.306C95.7687 132.584 97.2125 129.938 96.4906 127.531 95.7687 124.884 93.1219 123.441 90.7156 124.162L68.5781 129.938 89.7531 118.388C92.1594 117.184 92.8812 114.297 91.6781 111.891 90.475 109.484 87.5875 108.763 85.1813 109.966L62.5625 121.997 80.85 105.875C82.775 104.191 83.0156 101.062 81.3312 99.1375 79.6469 97.2125 76.5187 96.9719 74.5938 98.6562L52.4562 117.906C49.3281 119.35 46.2 120.312 43.0719 120.794 43.0719 120.794 43.0719 120.553 43.3125 120.553 46.9219 113.816 48.6063 105.634 47.1625 99.3781 46.6812 96.9719 44.0344 95.5281 41.6281 96.0094 39.2219 96.4906 37.7781 99.1375 38.2594 101.544 38.9813 104.672 36.575 109.244 33.9281 114.297 30.5594 120.553 26.7094 128.012 26.4688 136.434L3.85 148.706 13.9563 167.234 37.7781 154.481C44.9969 159.534 60.3969 152.316 66.1719 149.428Z" fill="#660E51" transform="matrix(1 0 0 1.00433 6.82843 6.82843)"/><path d="M68.8187 70.9844 73.8719 91.1969C74.3531 93.3625 76.2781 94.8063 78.4437 94.8063 78.925 94.8063 79.1656 94.8063 79.6469 94.5656 82.2938 93.8438 83.7375 91.4375 83.2562 88.7906L78.6844 69.7812 91.4375 92.6406C92.4 94.325 93.8438 95.0469 95.7687 95.0469 96.4906 95.0469 97.4531 94.8063 98.175 94.325 100.581 93.1219 101.303 89.9938 100.1 87.8281L89.0312 67.8563 105.394 85.4219C106.356 86.3844 107.559 86.8656 109.003 86.8656 110.206 86.8656 111.409 86.3844 112.372 85.6625 114.297 83.7375 114.297 80.85 112.612 78.925L95.0469 60.1562 115.5 73.8719C116.222 74.3531 117.184 74.5938 118.147 74.5938 119.591 74.5938 121.275 73.8719 122.237 72.4281 123.681 70.2625 123.2 67.1344 121.034 65.6906L96.4906 49.3281C94.325 46.6812 92.6406 43.7938 91.1969 41.1469 91.1969 41.1469 91.4375 41.1469 91.4375 41.1469 98.6562 42.8312 107.078 42.5906 112.853 39.4625 115.019 38.2594 115.741 35.6125 114.537 33.4469 113.334 31.2812 110.688 30.5594 108.522 31.7625 105.875 33.2062 100.581 32.0031 95.0469 30.8 88.0687 29.1156 79.8875 27.1906 71.7062 29.3562L54.1406 10.5875 38.7406 25.025 57.2687 44.7563C53.4188 53.1781 64.2469 66.4125 68.8187 70.9844Z" fill="#660E51" transform="matrix(1 0 0 1.00433 6.82843 6.82843)"/><path d="M227.15 165.55 208.863 145.578C211.991 137.156 201.162 123.922 196.831 119.109L192.019 98.8969C191.297 96.25 188.891 94.8063 186.244 95.2875 183.597 96.0094 182.153 98.4156 182.634 101.062L187.206 120.072 174.453 96.9719C173.25 94.5656 170.363 93.8438 167.956 95.0469 165.55 96.25 164.828 99.1375 166.031 101.544L177.1 121.756 160.738 104.191C158.812 102.266 155.925 102.025 154 103.95 152.075 105.875 151.834 108.763 153.759 110.688L171.325 129.697 151.113 115.981C148.947 114.537 145.819 115.019 144.375 117.184 142.931 119.35 143.412 122.478 145.578 123.922L169.881 140.525C172.047 143.172 173.731 146.059 175.175 148.706 175.175 148.706 174.934 148.706 174.934 148.706 167.716 147.022 159.294 147.262 153.519 150.391 151.353 151.594 150.391 154.241 151.594 156.406 152.797 158.572 155.444 159.534 157.609 158.331 160.256 156.887 165.55 158.091 171.084 159.534 178.062 161.219 186.244 163.144 194.425 161.219L211.75 179.988 227.15 165.55Z" fill="#660E51" transform="matrix(1 0 0 1.00433 6.82843 6.82843)"/><path d="M128.253 62.5625C128.734 62.5625 129.216 62.5625 129.938 62.3219L148.225 55.825 126.569 70.7438C124.403 72.1875 123.922 75.3156 125.366 77.4813 126.328 78.925 127.772 79.6469 129.216 79.6469 130.178 79.6469 131.141 79.4062 131.863 78.6844L150.631 65.6906 134.75 83.7375C133.066 85.6625 133.306 88.7906 135.231 90.475 136.194 91.1969 137.156 91.6781 138.359 91.6781 139.803 91.6781 141.006 91.1969 141.969 89.9938L159.053 70.5031 147.503 92.1594C146.3 94.5656 147.022 97.4531 149.428 98.6562 150.15 99.1375 150.872 99.1375 151.594 99.1375 153.278 99.1375 154.963 98.175 155.925 96.4906L169.881 70.5031C172.287 68.0969 174.934 66.1719 177.581 64.4875 177.581 64.4875 177.581 64.7281 177.581 64.7281 176.619 72.1875 177.822 80.6094 181.431 85.9031 182.875 88.0687 185.522 88.55 187.688 87.1063 189.853 85.6625 190.334 83.0156 188.891 80.85 187.206 78.2031 187.928 72.9094 188.65 67.1344 189.613 60.1562 190.575 51.7344 187.928 43.7938L204.772 24.5437 188.891 10.5875 171.084 31.0406C162.422 28.875 150.391 41.1469 146.059 45.7188L126.328 52.6969C123.922 53.6594 122.478 56.3062 123.441 58.9531 124.403 61.3594 126.328 62.5625 128.253 62.5625Z" fill="#660E51" transform="matrix(1 0 0 1.00433 6.82843 6.82843)"/></g></g></g></g></g><g clip-path="url(#clip7)"><g clip-path="url(#clip8)"><g clip-path="url(#clip9)"><path d="M151.113 147.503C152.316 145.097 151.594 142.209 149.188 141.006 146.781 139.803 143.894 140.525 142.691 142.931L133.066 160.016 139.562 134.269C140.284 131.622 138.6 128.975 135.953 128.494 133.306 127.772 130.659 129.456 130.178 132.103L124.644 154.241 124.644 130.178C124.644 127.531 122.478 125.366 119.831 125.366 117.184 125.366 115.019 127.531 115.019 130.178L115.019 155.925 109.484 132.103C109.003 129.456 106.356 128.012 103.709 128.494 101.062 128.975 99.6188 131.622 100.1 134.269L106.838 162.903C106.597 166.272 105.875 169.641 105.153 172.528 105.153 172.528 105.153 172.287 104.912 172.287 100.822 166.031 94.325 160.497 88.0687 158.812 85.6625 158.091 83.2562 159.534 82.5344 161.941 81.8125 164.347 83.2562 166.753 85.6625 167.475 88.7906 168.197 91.6781 172.769 94.8063 177.581 98.6562 183.597 103.469 190.575 110.688 194.666L110.688 220.412 131.863 220.412 131.863 193.222C139.803 189.131 140.766 172.047 141.006 165.55L151.113 147.503Z" fill="#660E51" transform="matrix(1 0 0 1.00433 521 229)"/><path d="M66.1719 149.428 87.1063 149.669C87.1063 149.669 87.1063 149.669 87.1063 149.669 89.7531 149.669 91.9188 147.503 91.9188 144.856 91.9188 142.209 89.7531 140.044 87.1063 140.044L67.6156 139.803 93.1219 133.306C95.7687 132.584 97.2125 129.938 96.4906 127.531 95.7687 124.884 93.1219 123.441 90.7156 124.162L68.5781 129.938 89.7531 118.388C92.1594 117.184 92.8812 114.297 91.6781 111.891 90.475 109.484 87.5875 108.763 85.1813 109.966L62.5625 121.997 80.85 105.875C82.775 104.191 83.0156 101.062 81.3312 99.1375 79.6469 97.2125 76.5187 96.9719 74.5938 98.6562L52.4562 117.906C49.3281 119.35 46.2 120.312 43.0719 120.794 43.0719 120.794 43.0719 120.553 43.3125 120.553 46.9219 113.816 48.6063 105.634 47.1625 99.3781 46.6812 96.9719 44.0344 95.5281 41.6281 96.0094 39.2219 96.4906 37.7781 99.1375 38.2594 101.544 38.9813 104.672 36.575 109.244 33.9281 114.297 30.5594 120.553 26.7094 128.012 26.4688 136.434L3.85 148.706 13.9563 167.234 37.7781 154.481C44.9969 159.534 60.3969 152.316 66.1719 149.428Z" fill="#660E51" transform="matrix(1 0 0 1.00433 521 229)"/><path d="M68.8187 70.9844 73.8719 91.1969C74.3531 93.3625 76.2781 94.8063 78.4437 94.8063 78.925 94.8063 79.1656 94.8063 79.6469 94.5656 82.2938 93.8438 83.7375 91.4375 83.2562 88.7906L78.6844 69.7812 91.4375 92.6406C92.4 94.325 93.8438 95.0469 95.7687 95.0469 96.4906 95.0469 97.4531 94.8063 98.175 94.325 100.581 93.1219 101.303 89.9938 100.1 87.8281L89.0312 67.8563 105.394 85.4219C106.356 86.3844 107.559 86.8656 109.003 86.8656 110.206 86.8656 111.409 86.3844 112.372 85.6625 114.297 83.7375 114.297 80.85 112.612 78.925L95.0469 60.1562 115.5 73.8719C116.222 74.3531 117.184 74.5938 118.147 74.5938 119.591 74.5938 121.275 73.8719 122.237 72.4281 123.681 70.2625 123.2 67.1344 121.034 65.6906L96.4906 49.3281C94.325 46.6812 92.6406 43.7938 91.1969 41.1469 91.1969 41.1469 91.4375 41.1469 91.4375 41.1469 98.6562 42.8312 107.078 42.5906 112.853 39.4625 115.019 38.2594 115.741 35.6125 114.537 33.4469 113.334 31.2812 110.688 30.5594 108.522 31.7625 105.875 33.2062 100.581 32.0031 95.0469 30.8 88.0687 29.1156 79.8875 27.1906 71.7062 29.3562L54.1406 10.5875 38.7406 25.025 57.2687 44.7563C53.4188 53.1781 64.2469 66.4125 68.8187 70.9844Z" fill="#660E51" transform="matrix(1 0 0 1.00433 521 229)"/><path d="M227.15 165.55 208.863 145.578C211.991 137.156 201.162 123.922 196.831 119.109L192.019 98.8969C191.297 96.25 188.891 94.8063 186.244 95.2875 183.597 96.0094 182.153 98.4156 182.634 101.062L187.206 120.072 174.453 96.9719C173.25 94.5656 170.363 93.8438 167.956 95.0469 165.55 96.25 164.828 99.1375 166.031 101.544L177.1 121.756 160.738 104.191C158.812 102.266 155.925 102.025 154 103.95 152.075 105.875 151.834 108.763 153.759 110.688L171.325 129.697 151.113 115.981C148.947 114.537 145.819 115.019 144.375 117.184 142.931 119.35 143.412 122.478 145.578 123.922L169.881 140.525C172.047 143.172 173.731 146.059 175.175 148.706 175.175 148.706 174.934 148.706 174.934 148.706 167.716 147.022 159.294 147.262 153.519 150.391 151.353 151.594 150.391 154.241 151.594 156.406 152.797 158.572 155.444 159.534 157.609 158.331 160.256 156.887 165.55 158.091 171.084 159.534 178.062 161.219 186.244 163.144 194.425 161.219L211.75 179.988 227.15 165.55Z" fill="#660E51" transform="matrix(1 0 0 1.00433 521 229)"/><path d="M128.253 62.5625C128.734 62.5625 129.216 62.5625 129.938 62.3219L148.225 55.825 126.569 70.7438C124.403 72.1875 123.922 75.3156 125.366 77.4813 126.328 78.925 127.772 79.6469 129.216 79.6469 130.178 79.6469 131.141 79.4062 131.863 78.6844L150.631 65.6906 134.75 83.7375C133.066 85.6625 133.306 88.7906 135.231 90.475 136.194 91.1969 137.156 91.6781 138.359 91.6781 139.803 91.6781 141.006 91.1969 141.969 89.9938L159.053 70.5031 147.503 92.1594C146.3 94.5656 147.022 97.4531 149.428 98.6562 150.15 99.1375 150.872 99.1375 151.594 99.1375 153.278 99.1375 154.963 98.175 155.925 96.4906L169.881 70.5031C172.287 68.0969 174.934 66.1719 177.581 64.4875 177.581 64.4875 177.581 64.7281 177.581 64.7281 176.619 72.1875 177.822 80.6094 181.431 85.9031 182.875 88.0687 185.522 88.55 187.688 87.1063 189.853 85.6625 190.334 83.0156 188.891 80.85 187.206 78.2031 187.928 72.9094 188.65 67.1344 189.613 60.1562 190.575 51.7344 187.928 43.7938L204.772 24.5437 188.891 10.5875 171.084 31.0406C162.422 28.875 150.391 41.1469 146.059 45.7188L126.328 52.6969C123.922 53.6594 122.478 56.3062 123.441 58.9531 124.403 61.3594 126.328 62.5625 128.253 62.5625Z" fill="#660E51" transform="matrix(1 0 0 1.00433 521 229)"/></g></g></g></g></svg>