<svg width="243" height="244" xmlns="http://www.w3.org/2000/svg" xmlns:xlink="http://www.w3.org/1999/xlink" overflow="hidden"><defs><filter id="fx0" x="-10%" y="-10%" width="120%" height="120%" filterUnits="userSpaceOnUse" primitiveUnits="userSpaceOnUse"><feComponentTransfer color-interpolation-filters="sRGB"><feFuncR type="discrete" tableValues="0 0"/><feFuncG type="discrete" tableValues="0 0"/><feFuncB type="discrete" tableValues="0 0"/><feFuncA type="linear" slope="0.4" intercept="0"/></feComponentTransfer><feGaussianBlur stdDeviation="1.77778 1.77778"/></filter><clipPath id="clip1"><rect x="141" y="226" width="243" height="244"/></clipPath><clipPath id="clip2"><rect x="67" y="17" width="111" height="213"/></clipPath><clipPath id="clip3"><rect x="0" y="0" width="245" height="246"/></clipPath><clipPath id="clip4"><rect x="6" y="6" width="232" height="233"/></clipPath><clipPath id="clip5"><rect x="6" y="6" width="232" height="233"/></clipPath><clipPath id="clip6"><rect x="6" y="6" width="232" height="233"/></clipPath><clipPath id="clip7"><rect x="144" y="229" width="231" height="232"/></clipPath><clipPath id="clip8"><rect x="144" y="229" width="231" height="232"/></clipPath><clipPath id="clip9"><rect x="144" y="229" width="231" height="232"/></clipPath></defs><g clip-path="url(#clip1)" transform="translate(-141 -226)"><g clip-path="url(#clip2)" filter="url(#fx0)" transform="translate(140 225)"><g clip-path="url(#clip3)"><g clip-path="url(#clip4)"><g clip-path="url(#clip5)"><g clip-path="url(#clip6)"><path d="M81.8125 214.156 108.281 125.125 67.375 125.125 87.6356 17.4212 148.177 17.4212 122.719 96.25 163.625 96.25 81.8125 214.156Z" fill="#660E51" transform="matrix(1 0 0 1.00433 6.82843 6.82843)"/></g></g></g></g></g><g clip-path="url(#clip7)"><g clip-path="url(#clip8)"><g clip-path="url(#clip9)"><path d="M81.8125 214.156 108.281 125.125 67.375 125.125 87.6356 17.4212 148.177 17.4212 122.719 96.25 163.625 96.25 81.8125 214.156Z" fill="#660E51" transform="matrix(1 0 0 1.00433 144 229)"/></g></g></g></g></svg>