<svg width="271" height="271" xmlns="http://www.w3.org/2000/svg" xmlns:xlink="http://www.w3.org/1999/xlink" overflow="hidden"><defs><filter id="fx0" x="-10%" y="-10%" width="120%" height="120%" filterUnits="userSpaceOnUse" primitiveUnits="userSpaceOnUse"><feComponentTransfer color-interpolation-filters="sRGB"><feFuncR type="discrete" tableValues="0 0"/><feFuncG type="discrete" tableValues="0 0"/><feFuncB type="discrete" tableValues="0 0"/><feFuncA type="linear" slope="0.4" intercept="0"/></feComponentTransfer><feGaussianBlur stdDeviation="1.77778 1.77778"/></filter><clipPath id="clip1"><rect x="22" y="140" width="271" height="271"/></clipPath><clipPath id="clip2"><rect x="7" y="48" width="256" height="175"/></clipPath><clipPath id="clip3"><rect x="0" y="0" width="273" height="273"/></clipPath><clipPath id="clip4"><rect x="6" y="6" width="260" height="260"/></clipPath><clipPath id="clip5"><rect x="6" y="6" width="260" height="260"/></clipPath><clipPath id="clip6"><rect x="6" y="6" width="260" height="260"/></clipPath><clipPath id="clip7"><rect x="26" y="143" width="259" height="259"/></clipPath><clipPath id="clip8"><rect x="26" y="143" width="259" height="259"/></clipPath><clipPath id="clip9"><rect x="26" y="143" width="259" height="259"/></clipPath></defs><g clip-path="url(#clip1)" transform="translate(-22 -140)"><g clip-path="url(#clip2)" filter="url(#fx0)" transform="translate(22 139)"><g clip-path="url(#clip3)"><g clip-path="url(#clip4)"><g clip-path="url(#clip5)"><g clip-path="url(#clip6)"><path d="M129.907 83.8564 148.793 64.9702 156.424 72.601 137.538 91.4872Z" fill="#660E51"/><path d="M112.047 55.3909 122.839 55.3909 122.839 90.4639 112.047 90.4639Z" fill="#660E51"/><path d="M78.6327 72.7728 86.2635 65.142 105.15 84.0282 97.5189 91.659Z" fill="#660E51"/><path d="M249.641 93.1618C246.673 93.1618 244.245 95.5899 244.245 98.5576L139.026 98.5576 139.026 109.349 95.8597 109.349 95.8597 98.8274C74.2764 100.446 55.1211 113.936 46.7576 133.631L33.8076 133.631C23.2857 133.631 14.9222 141.994 14.9222 152.516 14.9222 163.038 23.2857 171.401 33.8076 171.401L43.7899 171.401C51.8836 202.427 83.7191 220.773 114.745 212.679 130.393 208.633 143.343 198.111 150.897 184.082L152.246 181.923C180.844 139.026 219.424 139.026 241.547 139.026L244.245 139.026C244.245 141.994 246.673 144.422 249.641 144.422 252.609 144.422 255.037 141.994 255.037 139.026L255.037 98.5576C255.037 95.5899 252.609 93.1618 249.641 93.1618ZM33.8076 160.61C29.2211 160.61 25.7138 157.102 25.7138 152.516 25.7138 147.929 29.2211 144.422 33.8076 144.422 38.3941 144.422 41.9013 147.929 41.9013 152.516 41.9013 157.102 38.3941 160.61 33.8076 160.61Z" fill="#660E51"/></g></g></g></g></g><g clip-path="url(#clip7)"><g clip-path="url(#clip8)"><g clip-path="url(#clip9)"><path d="M149.079 220.028 167.965 201.142 175.596 208.773 156.71 227.659Z" fill="#660E51"/><path d="M131.219 191.562 142.01 191.562 142.01 226.635 131.219 226.635Z" fill="#660E51"/><path d="M97.8043 208.944 105.435 201.314 124.321 220.2 116.69 227.831Z" fill="#660E51"/><path d="M268.812 229.333C265.845 229.333 263.417 231.761 263.417 234.729L158.198 234.729 158.198 245.521 115.031 245.521 115.031 234.999C93.4479 236.618 74.2927 250.107 65.9292 269.802L52.9792 269.802C42.4573 269.802 34.0938 278.166 34.0938 288.688 34.0938 299.209 42.4573 307.573 52.9792 307.573L62.9615 307.573C71.0552 338.599 102.891 356.945 133.917 348.851 149.565 344.804 162.515 334.282 170.069 320.253L171.418 318.095C200.016 275.198 238.596 275.198 260.719 275.198L263.417 275.198C263.417 278.166 265.845 280.594 268.812 280.594 271.78 280.594 274.208 278.166 274.208 275.198L274.208 234.729C274.208 231.761 271.78 229.333 268.812 229.333ZM52.9792 296.781C48.3927 296.781 44.8854 293.274 44.8854 288.688 44.8854 284.101 48.3927 280.594 52.9792 280.594 57.5656 280.594 61.0729 284.101 61.0729 288.688 61.0729 293.274 57.5656 296.781 52.9792 296.781Z" fill="#660E51"/></g></g></g></g></svg>