<svg width="253" height="253" xmlns="http://www.w3.org/2000/svg" xmlns:xlink="http://www.w3.org/1999/xlink" overflow="hidden"><defs><filter id="fx0" x="-10%" y="-10%" width="120%" height="120%" filterUnits="userSpaceOnUse" primitiveUnits="userSpaceOnUse"><feComponentTransfer color-interpolation-filters="sRGB"><feFuncR type="discrete" tableValues="0 0"/><feFuncG type="discrete" tableValues="0 0"/><feFuncB type="discrete" tableValues="0 0"/><feFuncA type="linear" slope="0.4" intercept="0"/></feComponentTransfer><feGaussianBlur stdDeviation="1.77778 1.77778"/></filter><clipPath id="clip1"><rect x="550" y="130" width="253" height="253"/></clipPath><clipPath id="clip2"><rect x="34" y="19" width="187" height="217"/></clipPath><clipPath id="clip3"><rect x="0" y="0" width="255" height="255"/></clipPath><clipPath id="clip4"><rect x="6" y="6" width="242" height="242"/></clipPath><clipPath id="clip5"><rect x="6" y="6" width="242" height="242"/></clipPath><clipPath id="clip6"><rect x="6" y="6" width="242" height="242"/></clipPath><clipPath id="clip7"><rect x="553" y="133" width="241" height="241"/></clipPath><clipPath id="clip8"><rect x="553" y="133" width="241" height="241"/></clipPath><clipPath id="clip9"><rect x="553" y="133" width="241" height="241"/></clipPath></defs><g clip-path="url(#clip1)" transform="translate(-550 -130)"><g clip-path="url(#clip2)" filter="url(#fx0)" transform="translate(549 129)"><g clip-path="url(#clip3)"><g clip-path="url(#clip4)"><g clip-path="url(#clip5)"><g clip-path="url(#clip6)"><path d="M210.132 135.613 192.81 105.739 192.81 104.735C193.863 77.2178 179.678 51.3567 155.907 37.4555 132.14 23.397 102.604 23.397 78.8372 37.4555 55.0209 51.3123 40.8197 77.2032 41.9341 104.735 41.846 128.345 52.8065 150.637 71.557 164.985L71.557 227.745 150.886 227.745 150.886 197.871 163.187 197.871C171.117 197.924 178.728 194.753 184.275 189.085 189.767 183.441 192.83 175.872 192.81 167.997L192.81 152.935 203.856 152.935C210.408 152.433 216.182 144.901 210.132 135.613ZM110.571 125.958C115.484 125.205 118.045 131.353 115.002 135.462L114.555 136.035C111.32 139.986 104.614 139.158 104.145 134.22 103.866 131.328 100.07 128.353 98.3231 130.6L87.1919 144.901 76.987 136.961C74.7402 135.204 77.7176 131.415 80.6071 131.137 85.5526 130.665 86.381 123.962 82.4221 120.726L81.8497 120.279C77.7402 117.237 71.5972 119.797 72.3503 124.708 72.7921 127.577 69.8399 131.395 67.5956 129.646L57.9631 122.149 69.1445 107.782C70.9018 105.536 67.0759 102.586 64.2065 103.028 59.2961 103.781 56.7355 97.6302 59.7781 93.5232L60.2225 92.9508C63.4609 88.9994 70.1637 89.8253 70.6357 94.7658 70.9143 97.6553 74.7101 100.63 76.4574 98.3858L87.5885 84.0765 97.1608 91.5274C99.4076 93.2847 96.4327 97.0704 93.5432 97.3465 88.5952 97.821 87.7693 104.524 91.7257 107.76L92.2981 108.207C96.4076 111.249 102.561 108.681 101.805 103.776 101.363 100.906 104.303 97.0854 106.56 98.8402L116.822 106.826 105.636 121.203C103.886 123.447 107.702 126.4 110.571 125.958ZM148.644 84.3702C146.729 85.8563 144.219 82.6003 144.598 80.1552 145.248 75.9703 139.883 73.8792 136.376 76.4649L135.889 76.8465C132.51 79.6079 133.338 85.2212 137.548 85.6329 140.011 85.884 142.544 89.1124 140.629 90.5985L132.41 96.98 122.893 84.7216C121.404 82.8062 118.163 85.3392 117.924 87.8019 117.518 92.0169 111.899 92.8403 109.138 89.4613L108.751 88.9693C106.168 85.4547 108.249 80.1 112.439 80.7477 114.887 81.1267 118.14 78.6163 116.654 76.7009L107.18 64.4977 115.346 58.1564C117.264 56.6677 119.775 59.9137 119.396 62.3689 118.745 66.5563 124.11 68.6449 127.615 66.0592L128.117 65.6801C131.493 62.9187 130.667 57.3029 126.455 56.8937 123.992 56.6552 121.452 53.4218 123.377 51.9281L132.133 45.1299 141.653 57.3882C143.139 59.3037 146.38 56.7707 146.618 54.3079 147.025 50.0904 152.643 49.2695 155.405 52.6486L155.784 53.1356C158.37 56.6502 156.286 62.0049 152.096 61.3572 149.651 60.9781 146.395 63.4885 147.881 65.404L157.351 77.6222Z" fill="#660E51"/></g></g></g></g></g><g clip-path="url(#clip7)"><g clip-path="url(#clip8)"><g clip-path="url(#clip9)"><path d="M756.304 261.784 738.982 231.91 738.982 230.906C740.034 203.389 725.849 177.528 702.079 163.627 678.312 149.569 648.775 149.569 625.009 163.627 601.192 177.484 586.991 203.375 588.106 230.906 588.018 254.516 598.978 276.808 617.729 291.156L617.729 353.917 697.058 353.917 697.058 324.043 709.359 324.043C717.289 324.096 724.9 320.925 730.446 315.256 735.938 309.613 739.002 302.043 738.982 294.169L738.982 279.106 750.028 279.106C756.58 278.604 762.354 271.073 756.304 261.784ZM656.743 252.129C661.656 251.376 664.216 257.524 661.174 261.634L660.727 262.206C657.491 266.158 650.786 265.329 650.316 260.391 650.038 257.499 646.242 254.524 644.495 256.771L633.363 271.073 623.159 263.132C620.912 261.375 623.889 257.587 626.779 257.308 631.724 256.836 632.553 250.134 628.594 246.898L628.021 246.451C623.912 243.408 617.769 245.969 618.522 250.879 618.964 253.749 616.011 257.567 613.767 255.817L604.135 248.321 615.316 233.954C617.073 231.707 613.247 228.757 610.378 229.199 605.468 229.952 602.907 223.802 605.95 219.695L606.394 219.122C609.633 215.171 616.335 215.997 616.807 220.937 617.086 223.827 620.882 226.802 622.629 224.557L633.76 210.248 643.332 217.699C645.579 219.456 642.604 223.242 639.715 223.518 634.767 223.993 633.941 230.695 637.897 233.931L638.47 234.378C642.579 237.421 648.732 234.853 647.977 229.947 647.535 227.078 650.474 223.257 652.731 225.012L662.994 232.997 651.807 247.375C650.058 249.619 653.874 252.571 656.743 252.129ZM694.816 210.542C692.901 212.028 690.39 208.772 690.769 206.327 691.419 202.142 686.055 200.051 682.548 202.636L682.061 203.018C678.682 205.779 679.51 211.393 683.72 211.805 686.183 212.056 688.716 215.284 686.8 216.77L678.581 223.152 669.064 210.893C667.575 208.978 664.334 211.511 664.096 213.973 663.689 218.188 658.071 219.012 655.31 215.633L654.923 215.141C652.34 211.626 654.421 206.272 658.611 206.919 661.058 207.298 664.312 204.788 662.826 202.872L653.351 190.669 661.518 184.328C663.436 182.839 665.946 186.085 665.567 188.54 664.917 192.728 670.282 194.816 673.786 192.231L674.288 191.852C677.665 189.09 676.839 183.474 672.626 183.065 670.164 182.827 667.623 179.593 669.549 178.1L678.305 171.301 687.824 183.56C689.311 185.475 692.552 182.942 692.79 180.48 693.197 176.262 698.815 175.441 701.577 178.82L701.956 179.307C704.541 182.822 702.458 188.176 698.268 187.529 695.823 187.15 692.567 189.66 694.053 191.576L703.522 203.794Z" fill="#660E51"/></g></g></g></g></svg>