<svg width="271" height="271" xmlns="http://www.w3.org/2000/svg" xmlns:xlink="http://www.w3.org/1999/xlink" overflow="hidden"><defs><filter id="fx0" x="-10%" y="-10%" width="120%" height="120%" filterUnits="userSpaceOnUse" primitiveUnits="userSpaceOnUse"><feComponentTransfer color-interpolation-filters="sRGB"><feFuncR type="discrete" tableValues="0 0"/><feFuncG type="discrete" tableValues="0 0"/><feFuncB type="discrete" tableValues="0 0"/><feFuncA type="linear" slope="0.4" intercept="0"/></feComponentTransfer><feGaussianBlur stdDeviation="1.77778 1.77778"/></filter><clipPath id="clip1"><rect x="308" y="140" width="271" height="271"/></clipPath><clipPath id="clip2"><rect x="36" y="36" width="200" height="200"/></clipPath><clipPath id="clip3"><rect x="0" y="0" width="273" height="273"/></clipPath><clipPath id="clip4"><rect x="6" y="6" width="260" height="260"/></clipPath><clipPath id="clip5"><rect x="6" y="6" width="260" height="260"/></clipPath><clipPath id="clip6"><rect x="6" y="6" width="260" height="260"/></clipPath><clipPath id="clip7"><rect x="311" y="143" width="259" height="259"/></clipPath><clipPath id="clip8"><rect x="311" y="143" width="259" height="259"/></clipPath><clipPath id="clip9"><rect x="311" y="143" width="259" height="259"/></clipPath></defs><g clip-path="url(#clip1)" transform="translate(-308 -140)"><g clip-path="url(#clip2)" filter="url(#fx0)" transform="translate(307 139)"><g clip-path="url(#clip3)"><g clip-path="url(#clip4)"><g clip-path="url(#clip5)"><g clip-path="url(#clip6)"><path d="M44.5993 44.5993 82.3701 44.5993 82.3701 82.3701 44.5993 82.3701Z" fill="#660E51"/><path d="M163.947 188.97C162.074 187.154 159.083 187.199 157.267 189.072 155.49 190.905 155.49 193.818 157.267 195.65L162.695 201.078 136.328 201.078 136.328 58.0888 93.1618 58.0888 93.1618 68.8805 125.537 68.8805 125.537 211.87 162.714 211.87 157.267 217.296C155.45 219.169 155.496 222.159 157.369 223.976 159.201 225.753 162.115 225.753 163.947 223.976L178.111 209.814C179.956 207.969 179.956 204.977 178.111 203.132Z" fill="#660E51"/><path d="M228.058 206.474C228.058 218.394 218.394 228.058 206.474 228.058 194.554 228.058 184.891 218.394 184.891 206.474 184.891 194.554 194.554 184.891 206.474 184.891 218.394 184.891 228.058 194.554 228.058 206.474Z" fill="#660E51"/></g></g></g></g></g><g clip-path="url(#clip7)"><g clip-path="url(#clip8)"><g clip-path="url(#clip9)"><path d="M348.771 180.771 386.542 180.771 386.542 218.542 348.771 218.542Z" fill="#660E51"/><path d="M468.119 325.142C466.246 323.325 463.255 323.371 461.439 325.244 459.661 327.076 459.661 329.989 461.439 331.822L466.867 337.25 440.5 337.25 440.5 194.26 397.333 194.26 397.333 205.052 429.708 205.052 429.708 348.042 466.886 348.042 461.439 353.467C459.622 355.34 459.668 358.331 461.541 360.147 463.373 361.925 466.286 361.925 468.119 360.147L482.283 345.986C484.127 344.14 484.127 341.149 482.283 339.303Z" fill="#660E51"/><path d="M532.229 342.646C532.229 354.566 522.566 364.229 510.646 364.229 498.726 364.229 489.062 354.566 489.062 342.646 489.062 330.726 498.726 321.062 510.646 321.062 522.566 321.062 532.229 330.726 532.229 342.646Z" fill="#660E51"/></g></g></g></g></svg>