<svg width="271" height="271" xmlns="http://www.w3.org/2000/svg" xmlns:xlink="http://www.w3.org/1999/xlink" overflow="hidden"><defs><filter id="fx0" x="-10%" y="-10%" width="120%" height="120%" filterUnits="userSpaceOnUse" primitiveUnits="userSpaceOnUse"><feComponentTransfer color-interpolation-filters="sRGB"><feFuncR type="discrete" tableValues="0 0"/><feFuncG type="discrete" tableValues="0 0"/><feFuncB type="discrete" tableValues="0 0"/><feFuncA type="linear" slope="0.4" intercept="0"/></feComponentTransfer><feGaussianBlur stdDeviation="1.77778 1.77778"/></filter><clipPath id="clip1"><rect x="593" y="140" width="271" height="271"/></clipPath><clipPath id="clip2"><rect x="5" y="52" width="264" height="171"/></clipPath><clipPath id="clip3"><rect x="0" y="0" width="273" height="273"/></clipPath><clipPath id="clip4"><rect x="6" y="6" width="260" height="260"/></clipPath><clipPath id="clip5"><rect x="6" y="6" width="260" height="260"/></clipPath><clipPath id="clip6"><rect x="6" y="6" width="260" height="260"/></clipPath><clipPath id="clip7"><rect x="596" y="143" width="259" height="259"/></clipPath><clipPath id="clip8"><rect x="596" y="143" width="259" height="259"/></clipPath><clipPath id="clip9"><rect x="596" y="143" width="259" height="259"/></clipPath></defs><g clip-path="url(#clip1)" transform="translate(-593 -140)"><g clip-path="url(#clip2)" filter="url(#fx0)" transform="translate(592 139)"><g clip-path="url(#clip3)"><g clip-path="url(#clip4)"><g clip-path="url(#clip5)"><g clip-path="url(#clip6)"><path d="M203.895 73.9013C198.452 71.5431 192.6 70.2699 186.669 70.1539 184.362 70.083 182.058 70.3827 179.846 71.0415L150.058 143.729C152.246 143.084 154.523 142.792 156.803 142.863 162.759 142.981 168.634 144.261 174.099 146.629 191.002 153.555 203.137 170.506 225.584 170.506 227.272 170.507 228.958 170.417 230.637 170.236L260.433 97.5C230.059 96.1079 222.022 81.3287 203.895 73.9013ZM195.615 149.964C195.121 149.624 194.617 149.284 194.12 148.944L201.494 130.946 199.427 129.627C194.859 126.572 190.093 123.824 185.161 121.401L177.777 139.423C177.569 139.337 177.377 139.226 177.169 139.153 172.427 137.164 167.442 135.812 162.344 135.133L169.85 116.82C174.215 117.344 178.484 118.482 182.53 120.2 183.439 120.573 184.295 121.01 185.163 121.414L192.893 102.553C192.028 102.154 191.142 101.768 190.236 101.396 186.197 99.7258 181.998 98.4737 177.704 97.6592L185.644 78.2828C185.965 78.2828 186.313 78.2612 186.682 78.2612 191.56 78.3823 196.367 79.4488 200.838 81.4016 201.049 81.4879 201.238 81.5958 201.445 81.6713L192.893 102.542C198.587 105.255 204.077 108.376 209.321 111.883L217.749 91.3164C222.94 94.8903 228.492 97.9087 234.314 100.322L225.74 121.244C220.252 118.631 214.957 115.631 209.895 112.266L209.299 111.883 201.507 130.949C206.767 134.42 212.277 137.497 217.992 140.154L210.303 158.883C205.158 156.34 200.244 153.355 195.615 149.964ZM220.614 141.255C219.716 140.885 218.895 140.486 218.038 140.097L225.756 121.331C230.321 123.398 235.091 124.977 239.988 126.041L232.199 145.053C228.254 144.058 224.383 142.789 220.614 141.255Z" fill="#660E51"/><path d="M123.052 143.729 93.267 71.0388C91.0547 70.38 88.7512 70.0803 86.444 70.1512 80.5129 70.2672 74.6613 71.5404 69.2178 73.8986 51.0878 81.326 43.048 96.1052 12.6802 97.4973L42.4841 170.228C44.1614 170.409 45.8476 170.499 47.5346 170.498 69.9813 170.498 82.1192 153.547 99.0216 146.621 104.486 144.248 110.362 142.965 116.318 142.844 118.595 142.78 120.868 143.079 123.052 143.729ZM40.9139 145.053 33.1223 126.041C38.0263 124.975 42.8038 123.393 47.3754 121.323L55.0105 140.127C54.1742 140.505 53.3756 140.896 52.4988 141.255 48.7298 142.788 44.8588 144.057 40.9139 145.053ZM95.9514 139.14C95.7437 139.226 95.5521 139.337 95.3471 139.409L87.9602 121.387C83.0246 123.811 78.2552 126.559 73.6828 129.613L71.6162 130.933 78.9923 148.93C78.4959 149.27 77.9887 149.61 77.495 149.95 72.8661 153.342 67.9519 156.327 62.8075 158.87L55.1481 140.192C60.8529 137.517 66.3537 134.427 71.6054 130.946L63.7815 111.88 63.1852 112.263C58.135 115.637 52.8498 118.644 47.37 121.263L38.7879 100.319C44.6103 97.9066 50.1626 94.8882 55.3532 91.3137L63.7815 111.88C69.0249 108.374 74.5151 105.253 80.2091 102.54L71.6567 81.6686C71.8644 81.5823 72.056 81.4744 72.2637 81.3988 76.7358 79.4458 81.544 78.3793 86.4224 78.2585 86.792 78.2585 87.1373 78.2585 87.4611 78.2801L95.401 97.6565C91.107 98.4705 86.9077 99.7226 82.8692 101.393 81.9592 101.765 81.0724 102.151 80.2091 102.551L87.9386 121.412C88.81 120.999 89.6653 120.57 90.5745 120.198 94.6208 118.479 98.8897 117.341 103.255 116.817L110.76 135.131C105.669 135.807 100.689 137.155 95.9514 139.14Z" fill="#660E51"/><path d="M142.388 140.44 172.141 67.8364C173.195 65.0492 171.791 61.9347 169.004 60.8801 166.323 59.8657 163.316 61.1243 162.158 63.7464L136.555 126.211 110.968 63.7545C109.913 60.9673 106.799 59.563 104.012 60.6176 101.224 61.6725 99.8202 64.7867 100.875 67.5739 100.909 67.6651 100.946 67.7555 100.986 67.8445L130.725 140.44 103.398 207.124C102.203 209.854 103.448 213.036 106.178 214.231 108.908 215.425 112.09 214.18 113.284 211.45 113.318 211.373 113.35 211.296 113.38 211.217L136.555 154.674 159.73 211.223C160.925 213.953 164.106 215.198 166.836 214.003 169.477 212.848 170.743 209.821 169.712 207.13Z" fill="#660E51"/></g></g></g></g></g><g clip-path="url(#clip7)"><g clip-path="url(#clip8)"><g clip-path="url(#clip9)"><path d="M793.067 210.073C787.623 207.715 781.772 206.442 775.84 206.326 773.533 206.255 771.23 206.554 769.017 207.213L739.23 279.9C741.418 279.256 743.694 278.964 745.974 279.034 751.93 279.153 757.805 280.432 763.271 282.801 780.173 289.726 792.309 306.677 814.755 306.677 816.443 306.678 818.13 306.588 819.808 306.407L849.604 233.672C819.231 232.279 811.194 217.5 793.067 210.073ZM784.787 286.135C784.293 285.795 783.789 285.455 783.292 285.115L790.665 267.118 788.599 265.798C784.031 262.744 779.264 259.996 774.332 257.572L766.948 275.595C766.74 275.508 766.549 275.398 766.341 275.325 761.599 273.336 756.613 271.984 751.516 271.305L759.022 252.991C763.386 253.516 767.655 254.654 771.702 256.372 772.611 256.744 773.466 257.181 774.335 257.586L782.065 238.725C781.199 238.326 780.314 237.94 779.407 237.567 775.368 235.897 771.169 234.645 766.875 233.831L774.815 214.454C775.136 214.454 775.484 214.433 775.854 214.433 780.731 214.554 785.539 215.62 790.01 217.573 790.22 217.659 790.409 217.767 790.617 217.843L782.065 238.714C787.759 241.426 793.249 244.548 798.492 248.054L806.92 227.488C812.112 231.062 817.664 234.08 823.486 236.494L814.912 257.416C809.424 254.803 804.129 251.802 799.067 248.437L798.471 248.054 790.679 267.12C795.939 270.592 801.449 273.669 807.163 276.326L799.474 295.055C794.33 292.511 789.416 289.527 784.787 286.135ZM809.786 277.426C808.887 277.057 808.067 276.658 807.209 276.269L814.928 257.502C819.492 259.57 824.263 261.149 829.159 262.213L821.37 281.225C817.425 280.23 813.554 278.96 809.786 277.426Z" fill="#660E51"/><path d="M712.224 279.9 682.439 207.21C680.226 206.552 677.923 206.252 675.616 206.323 669.684 206.439 663.833 207.712 658.389 210.07 640.259 217.498 632.22 232.277 601.852 233.669L631.656 306.399C633.333 306.58 635.019 306.67 636.706 306.669 659.153 306.669 671.291 289.718 688.193 282.793 693.658 280.42 699.533 279.137 705.49 279.015 707.767 278.952 710.04 279.25 712.224 279.9ZM630.085 281.225 622.294 262.213C627.198 261.146 631.975 259.565 636.547 257.494L644.182 276.299C643.346 276.676 642.547 277.068 641.67 277.426 637.901 278.96 634.03 280.229 630.085 281.225ZM685.123 275.311C684.915 275.398 684.724 275.508 684.519 275.581L677.132 257.559C672.196 259.983 667.427 262.731 662.854 265.785L660.788 267.104 668.164 285.102C667.667 285.442 667.16 285.782 666.667 286.122 662.038 289.514 657.123 292.498 651.979 295.041L644.32 276.363C650.024 273.689 655.525 270.599 660.777 267.118L652.953 248.051 652.357 248.435C647.307 251.808 642.021 254.816 636.542 257.435L627.96 236.491C633.782 234.078 639.334 231.06 644.525 227.485L652.953 248.051C658.196 244.546 663.687 241.424 669.381 238.711L660.828 217.84C661.036 217.754 661.228 217.646 661.435 217.57 665.907 215.617 670.716 214.551 675.594 214.43 675.964 214.43 676.309 214.43 676.633 214.452L684.573 233.828C680.279 234.642 676.079 235.894 672.041 237.565 671.131 237.937 670.244 238.323 669.381 238.722L677.11 257.583C677.982 257.17 678.837 256.741 679.746 256.369 683.792 254.651 688.061 253.513 692.426 252.989L699.932 271.302C694.84 271.978 689.861 273.326 685.123 275.311Z" fill="#660E51"/><path d="M731.56 276.612 761.312 204.008C762.367 201.221 760.963 198.106 758.175 197.052 755.494 196.037 752.488 197.296 751.33 199.918L725.727 262.383 700.14 199.926C699.085 197.139 695.97 195.735 693.183 196.789 690.396 197.844 688.992 200.958 690.046 203.745 690.081 203.837 690.118 203.927 690.157 204.016L719.896 276.612 692.569 343.296C691.375 346.026 692.62 349.208 695.35 350.402 698.08 351.597 701.261 350.352 702.456 347.622 702.49 347.545 702.522 347.467 702.552 347.389L725.727 290.846 748.902 347.394C750.096 350.124 753.278 351.369 756.008 350.175 758.648 349.019 759.915 345.993 758.884 343.301Z" fill="#660E51"/></g></g></g></g></svg>