<svg width="271" height="271" xmlns="http://www.w3.org/2000/svg" xmlns:xlink="http://www.w3.org/1999/xlink" overflow="hidden"><defs><filter id="fx0" x="-10%" y="-10%" width="120%" height="120%" filterUnits="userSpaceOnUse" primitiveUnits="userSpaceOnUse"><feComponentTransfer color-interpolation-filters="sRGB"><feFuncR type="discrete" tableValues="0 0"/><feFuncG type="discrete" tableValues="0 0"/><feFuncB type="discrete" tableValues="0 0"/><feFuncA type="linear" slope="0.4" intercept="0"/></feComponentTransfer><feGaussianBlur stdDeviation="1.77778 1.77778"/></filter><clipPath id="clip1"><rect x="878" y="140" width="271" height="271"/></clipPath><clipPath id="clip2"><rect x="25" y="25" width="221" height="221"/></clipPath><clipPath id="clip3"><rect x="0" y="0" width="273" height="273"/></clipPath><clipPath id="clip4"><rect x="6" y="6" width="260" height="260"/></clipPath><clipPath id="clip5"><rect x="6" y="6" width="260" height="260"/></clipPath><clipPath id="clip6"><rect x="6" y="6" width="260" height="260"/></clipPath><clipPath id="clip7"><rect x="881" y="143" width="259" height="259"/></clipPath><clipPath id="clip8"><rect x="881" y="143" width="259" height="259"/></clipPath><clipPath id="clip9"><rect x="881" y="143" width="259" height="259"/></clipPath></defs><g clip-path="url(#clip1)" transform="translate(-878 -140)"><g clip-path="url(#clip2)" filter="url(#fx0)" transform="translate(877 139)"><g clip-path="url(#clip3)"><g clip-path="url(#clip4)"><g clip-path="url(#clip5)"><g clip-path="url(#clip6)"><path d="M112.981 95.8597 147.328 95.8597 113.064 36.5055C81.346 43.9224 55.0267 65.9463 42.1334 95.8597Z" fill="#660E51"/><path d="M170.694 114.745 170.632 114.78 177.021 125.842 211.331 66.4524C191.967 45.6102 164.794 33.7802 136.345 33.8076 132.346 33.8157 128.351 34.0555 124.379 34.5252Z" fill="#660E51"/><path d="M166.297 166.006 234.487 166.006C243.86 134.96 238.003 101.311 218.69 75.2584Z" fill="#660E51"/><path d="M159.709 176.797 125.361 176.797 159.625 236.151C191.343 228.735 217.661 206.711 230.553 176.797Z" fill="#660E51"/><path d="M101.992 157.912 102.057 157.877 95.625 146.74 61.3264 206.164C80.6901 227.03 107.878 238.876 136.345 238.849 140.343 238.841 144.339 238.601 148.31 238.132Z" fill="#660E51"/><path d="M106.309 106.651 38.2025 106.651C28.837 137.67 34.6763 171.29 53.9529 197.334Z" fill="#660E51"/></g></g></g></g></g><g clip-path="url(#clip7)"><g clip-path="url(#clip8)"><g clip-path="url(#clip9)"><path d="M987.152 232.031 1021.5 232.031 987.236 172.677C955.518 180.094 929.198 202.118 916.305 232.031Z" fill="#660E51"/><path d="M1044.87 250.917 1044.8 250.952 1051.19 262.013 1085.5 202.624C1066.14 181.782 1038.97 169.952 1010.52 169.979 1006.52 169.987 1002.52 170.227 998.551 170.697Z" fill="#660E51"/><path d="M1040.47 302.177 1108.66 302.177C1118.03 271.132 1112.17 237.482 1092.86 211.43Z" fill="#660E51"/><path d="M1033.88 312.969 999.533 312.969 1033.8 372.323C1065.51 364.906 1091.83 342.882 1104.72 312.969Z" fill="#660E51"/><path d="M976.164 294.083 976.228 294.048 969.797 282.911 935.498 342.336C954.862 363.202 982.05 375.048 1010.52 375.021 1014.52 375.012 1018.51 374.773 1022.48 374.303Z" fill="#660E51"/><path d="M980.48 242.823 912.374 242.823C903.009 273.841 908.848 307.461 928.125 333.505Z" fill="#660E51"/></g></g></g></g></svg>