<svg width="253" height="252" xmlns="http://www.w3.org/2000/svg" xmlns:xlink="http://www.w3.org/1999/xlink" overflow="hidden"><defs><filter id="fx0" x="-10%" y="-10%" width="120%" height="120%" filterUnits="userSpaceOnUse" primitiveUnits="userSpaceOnUse"><feComponentTransfer color-interpolation-filters="sRGB"><feFuncR type="discrete" tableValues="0 0"/><feFuncG type="discrete" tableValues="0 0"/><feFuncB type="discrete" tableValues="0 0"/><feFuncA type="linear" slope="0.4" intercept="0"/></feComponentTransfer><feGaussianBlur stdDeviation="1.77778 1.77778"/></filter><clipPath id="clip1"><rect x="500" y="212" width="253" height="252"/></clipPath><clipPath id="clip2"><rect x="34" y="34" width="187" height="187"/></clipPath><clipPath id="clip3"><rect x="0" y="0" width="255" height="255"/></clipPath><clipPath id="clip4"><rect x="6" y="6" width="242" height="242"/></clipPath><clipPath id="clip5"><rect x="6" y="6" width="242" height="242"/></clipPath><clipPath id="clip6"><rect x="6" y="6" width="242" height="242"/></clipPath><clipPath id="clip7"><rect x="503" y="215" width="241" height="241"/></clipPath><clipPath id="clip8"><rect x="503" y="215" width="241" height="241"/></clipPath><clipPath id="clip9"><rect x="503" y="215" width="241" height="241"/></clipPath></defs><g clip-path="url(#clip1)" transform="translate(-500 -212)"><g clip-path="url(#clip2)" filter="url(#fx0)" transform="translate(499 211)"><g clip-path="url(#clip3)"><g clip-path="url(#clip4)"><g clip-path="url(#clip5)"><g clip-path="url(#clip6)"><path d="M119.797 102.224 134.86 102.224 134.86 69.5889 154.943 69.5889 127.328 41.9743 99.7139 69.5889 119.797 69.5889 119.797 102.224Z" fill="#B3324F"/><path d="M134.86 152.433 119.797 152.433 119.797 185.068 99.7139 185.068 127.328 212.683 154.943 185.068 134.86 185.068 134.86 152.433Z" fill="#B3324F"/><path d="M212.683 127.328 185.068 99.7139 185.068 119.797 152.433 119.797 152.433 134.86 185.068 134.86 185.068 154.943 212.683 127.328Z" fill="#B3324F"/><path d="M102.224 134.86 102.224 119.797 69.5889 119.797 69.5889 99.7139 41.9743 127.328 69.5889 154.943 69.5889 134.86 102.224 134.86Z" fill="#B3324F"/></g></g></g></g></g><g clip-path="url(#clip7)"><g clip-path="url(#clip8)"><g clip-path="url(#clip9)"><path d="M615.969 310.396 631.031 310.396 631.031 277.76 651.115 277.76 623.5 250.146 595.885 277.76 615.969 277.76 615.969 310.396Z" fill="#B3324F"/><path d="M631.031 360.604 615.969 360.604 615.969 393.24 595.885 393.24 623.5 420.854 651.115 393.24 631.031 393.24 631.031 360.604Z" fill="#B3324F"/><path d="M708.854 335.5 681.24 307.885 681.24 327.969 648.604 327.969 648.604 343.031 681.24 343.031 681.24 363.115 708.854 335.5Z" fill="#B3324F"/><path d="M598.396 343.031 598.396 327.969 565.76 327.969 565.76 307.885 538.146 335.5 565.76 363.115 565.76 343.031 598.396 343.031Z" fill="#B3324F"/></g></g></g></g></svg>