<svg width="300" height="300" xmlns="http://www.w3.org/2000/svg" xmlns:xlink="http://www.w3.org/1999/xlink" overflow="hidden"><defs><filter id="fx0" x="-10%" y="-10%" width="120%" height="120%" filterUnits="userSpaceOnUse" primitiveUnits="userSpaceOnUse"><feComponentTransfer color-interpolation-filters="sRGB"><feFuncR type="discrete" tableValues="0 0"/><feFuncG type="discrete" tableValues="0 0"/><feFuncB type="discrete" tableValues="0 0"/><feFuncA type="linear" slope="0.4" intercept="0"/></feComponentTransfer><feGaussianBlur stdDeviation="1.77778 1.77778"/></filter><clipPath id="clip1"><rect x="557" y="221" width="300" height="300"/></clipPath><clipPath id="clip2"><rect x="46" y="40" width="215" height="221"/></clipPath><clipPath id="clip3"><rect x="0" y="0" width="302" height="302"/></clipPath><clipPath id="clip4"><rect x="6" y="6" width="289" height="289"/></clipPath><clipPath id="clip5"><rect x="6" y="6" width="289" height="289"/></clipPath><clipPath id="clip6"><rect x="6" y="6" width="289" height="289"/></clipPath><clipPath id="clip7"><rect x="561" y="224" width="288" height="288"/></clipPath><clipPath id="clip8"><rect x="561" y="224" width="288" height="288"/></clipPath><clipPath id="clip9"><rect x="561" y="224" width="288" height="288"/></clipPath></defs><g clip-path="url(#clip1)" transform="translate(-557 -221)"><g clip-path="url(#clip2)" filter="url(#fx0)" transform="translate(557 220)"><g clip-path="url(#clip3)"><g clip-path="url(#clip4)"><g clip-path="url(#clip5)"><g clip-path="url(#clip6)"><path d="M234.828 234.828 84.8284 234.828 84.8284 66.8284 234.828 66.8284 234.828 234.828ZM66.8284 48.8284 66.8284 66.8284 62.9284 66.8284C58.1284 67.1284 54.8284 71.0284 54.8284 75.8284 54.5284 80.6284 58.1284 84.5284 62.9284 84.8284L66.8284 84.8284 66.8284 96.8284 62.9284 96.8284C57.8284 96.8284 53.9284 100.728 53.9284 105.828 53.9284 110.928 57.8284 114.828 62.9284 114.828L66.8284 114.828 66.8284 126.828 62.9284 126.828C57.8284 126.828 53.9284 130.728 53.9284 135.828 53.9284 140.928 57.8284 144.828 62.9284 144.828L66.8284 144.828 66.8284 156.828 62.9284 156.828C57.8284 156.828 53.9284 160.728 53.9284 165.828 53.9284 170.928 57.8284 174.828 62.9284 174.828L66.8284 174.828 66.8284 186.828 62.9284 186.828C57.8284 186.828 53.9284 190.728 53.9284 195.828 53.9284 200.928 57.8284 204.828 62.9284 204.828L66.8284 204.828 66.8284 216.828 62.9284 216.828C57.8284 216.828 53.9284 220.728 53.9284 225.828 53.9284 230.928 57.8284 234.828 62.9284 234.828L66.8284 234.828 66.8284 252.828 252.828 252.828 252.828 48.8284 66.8284 48.8284Z" fill="#660E51"/><path d="M126.828 180.828C133.428 180.828 138.828 186.228 138.828 192.828 138.828 199.428 133.428 204.828 126.828 204.828 120.228 204.828 114.828 199.428 114.828 192.828 114.828 186.228 120.228 180.828 126.828 180.828ZM126.828 216.828C138.828 216.828 149.028 207.828 150.528 195.828 152.028 183.828 144.528 172.728 132.828 169.728L132.828 162.828C132.828 159.528 135.528 156.828 138.828 156.828L180.828 156.828C190.728 156.828 198.828 148.728 198.828 138.828L198.828 105.228 206.628 113.028C209.028 115.428 212.628 115.428 215.028 113.028 217.428 110.628 217.428 107.028 215.028 104.628L197.028 86.6284C195.828 85.4284 194.328 84.8284 192.828 84.8284 191.328 84.8284 189.828 85.4284 188.628 86.6284L170.628 104.628C168.228 107.028 168.228 110.628 170.628 113.028 173.028 115.428 176.628 115.428 179.028 113.028L186.828 105.228 186.828 138.828C186.828 142.128 184.128 144.828 180.828 144.828L138.828 144.828C128.928 144.828 120.828 152.928 120.828 162.828L120.828 169.728C109.128 172.728 101.628 184.128 103.128 195.828 104.628 207.828 114.828 216.828 126.828 216.828Z" fill="#660E51"/><path d="M215.028 170.628C213.828 169.428 212.328 168.828 210.828 168.828 209.328 168.828 207.828 169.428 206.628 170.628L192.828 184.428 179.028 170.628C176.628 168.228 173.028 168.228 170.628 170.628 168.228 173.028 168.228 176.628 170.628 179.028L184.428 192.828 170.628 206.628C168.228 209.028 168.228 212.628 170.628 215.028 173.028 217.428 176.628 217.428 179.028 215.028L192.828 201.228 206.628 215.028C209.028 217.428 212.628 217.428 215.028 215.028 217.428 212.628 217.428 209.028 215.028 206.628L201.228 192.828 215.028 179.028C217.428 176.628 217.428 173.028 215.028 170.628Z" fill="#660E51"/><path d="M104.628 131.028C105.828 132.228 107.328 132.828 108.828 132.828 110.328 132.828 111.828 132.228 113.028 131.028L126.828 117.228 140.628 131.028C143.028 133.428 146.628 133.428 149.028 131.028 151.428 128.628 151.428 125.028 149.028 122.628L135.228 108.828 149.028 95.0284C151.428 92.6284 151.428 89.0284 149.028 86.6284 146.628 84.2284 143.028 84.2284 140.628 86.6284L126.828 100.428 113.028 86.6284C110.628 84.2284 107.028 84.2284 104.628 86.6284 102.228 89.0284 102.228 92.6284 104.628 95.0284L118.428 108.828 104.628 122.628C102.228 125.028 102.228 128.628 104.628 131.028Z" fill="#660E51"/></g></g></g></g></g><g clip-path="url(#clip7)"><g clip-path="url(#clip8)"><g clip-path="url(#clip9)"><path d="M789 452 639 452 639 284 789 284 789 452ZM621 266 621 284 617.1 284C612.3 284.3 609 288.2 609 293 608.7 297.8 612.3 301.7 617.1 302L621 302 621 314 617.1 314C612 314 608.1 317.9 608.1 323 608.1 328.1 612 332 617.1 332L621 332 621 344 617.1 344C612 344 608.1 347.9 608.1 353 608.1 358.1 612 362 617.1 362L621 362 621 374 617.1 374C612 374 608.1 377.9 608.1 383 608.1 388.1 612 392 617.1 392L621 392 621 404 617.1 404C612 404 608.1 407.9 608.1 413 608.1 418.1 612 422 617.1 422L621 422 621 434 617.1 434C612 434 608.1 437.9 608.1 443 608.1 448.1 612 452 617.1 452L621 452 621 470 807 470 807 266 621 266Z" fill="#660E51"/><path d="M681 398C687.6 398 693 403.4 693 410 693 416.6 687.6 422 681 422 674.4 422 669 416.6 669 410 669 403.4 674.4 398 681 398ZM681 434C693 434 703.2 425 704.7 413 706.2 401 698.7 389.9 687 386.9L687 380C687 376.7 689.7 374 693 374L735 374C744.9 374 753 365.9 753 356L753 322.4 760.8 330.2C763.2 332.6 766.8 332.6 769.2 330.2 771.6 327.8 771.6 324.2 769.2 321.8L751.2 303.8C750 302.6 748.5 302 747 302 745.5 302 744 302.6 742.8 303.8L724.8 321.8C722.4 324.2 722.4 327.8 724.8 330.2 727.2 332.6 730.8 332.6 733.2 330.2L741 322.4 741 356C741 359.3 738.3 362 735 362L693 362C683.1 362 675 370.1 675 380L675 386.9C663.3 389.9 655.8 401.3 657.3 413 658.8 425 669 434 681 434Z" fill="#660E51"/><path d="M769.2 387.8C768 386.6 766.5 386 765 386 763.5 386 762 386.6 760.8 387.8L747 401.6 733.2 387.8C730.8 385.4 727.2 385.4 724.8 387.8 722.4 390.2 722.4 393.8 724.8 396.2L738.6 410 724.8 423.8C722.4 426.2 722.4 429.8 724.8 432.2 727.2 434.6 730.8 434.6 733.2 432.2L747 418.4 760.8 432.2C763.2 434.6 766.8 434.6 769.2 432.2 771.6 429.8 771.6 426.2 769.2 423.8L755.4 410 769.2 396.2C771.6 393.8 771.6 390.2 769.2 387.8Z" fill="#660E51"/><path d="M658.8 348.2C660 349.4 661.5 350 663 350 664.5 350 666 349.4 667.2 348.2L681 334.4 694.8 348.2C697.2 350.6 700.8 350.6 703.2 348.2 705.6 345.8 705.6 342.2 703.2 339.8L689.4 326 703.2 312.2C705.6 309.8 705.6 306.2 703.2 303.8 700.8 301.4 697.2 301.4 694.8 303.8L681 317.6 667.2 303.8C664.8 301.4 661.2 301.4 658.8 303.8 656.4 306.2 656.4 309.8 658.8 312.2L672.6 326 658.8 339.8C656.4 342.2 656.4 345.8 658.8 348.2Z" fill="#660E51"/></g></g></g></g></svg>