<svg width="253" height="253" xmlns="http://www.w3.org/2000/svg" xmlns:xlink="http://www.w3.org/1999/xlink" overflow="hidden"><defs><filter id="fx0" x="-10%" y="-10%" width="120%" height="120%" filterUnits="userSpaceOnUse" primitiveUnits="userSpaceOnUse"><feComponentTransfer color-interpolation-filters="sRGB"><feFuncR type="discrete" tableValues="0 0"/><feFuncG type="discrete" tableValues="0 0"/><feFuncB type="discrete" tableValues="0 0"/><feFuncA type="linear" slope="0.4" intercept="0"/></feComponentTransfer><feGaussianBlur stdDeviation="1.77778 1.77778"/></filter><clipPath id="clip1"><rect x="881" y="210" width="253" height="253"/></clipPath><clipPath id="clip2"><rect x="34" y="34" width="187" height="187"/></clipPath><clipPath id="clip3"><rect x="0" y="0" width="255" height="255"/></clipPath><clipPath id="clip4"><rect x="6" y="6" width="242" height="242"/></clipPath><clipPath id="clip5"><rect x="6" y="6" width="242" height="242"/></clipPath><clipPath id="clip6"><rect x="6" y="6" width="242" height="242"/></clipPath><clipPath id="clip7"><rect x="885" y="213" width="241" height="241"/></clipPath><clipPath id="clip8"><rect x="885" y="213" width="241" height="241"/></clipPath><clipPath id="clip9"><rect x="885" y="213" width="241" height="241"/></clipPath></defs><g clip-path="url(#clip1)" transform="translate(-881 -210)"><g clip-path="url(#clip2)" filter="url(#fx0)" transform="translate(881 209)"><g clip-path="url(#clip3)"><g clip-path="url(#clip4)"><g clip-path="url(#clip5)"><g clip-path="url(#clip6)"><path d="M57.0167 197.515 57.0167 41.9567 41.9617 41.9567 41.9617 212.57 212.577 212.57 212.577 197.515 57.0167 197.515Z" fill="#B3324F"/><path d="M78.6891 186.63 187.822 77.4967 187.97 77.6398 200.141 89.6722 199.922 54.7422 164.992 54.9607 177.102 66.9178 68.0399 175.98 78.6891 186.63Z" fill="#B3324F"/></g></g></g></g></g><g clip-path="url(#clip7)"><g clip-path="url(#clip8)"><g clip-path="url(#clip9)"><path d="M935.188 403.686 935.188 248.128 920.133 248.128 920.133 418.741 1090.75 418.741 1090.75 403.686 935.188 403.686Z" fill="#B3324F"/><path d="M956.861 392.801 1065.99 283.668 1066.14 283.811 1078.31 295.844 1078.09 260.914 1043.16 261.132 1055.27 273.089 946.211 382.152 956.861 392.801Z" fill="#B3324F"/></g></g></g></g></svg>