<svg width="253" height="253" xmlns="http://www.w3.org/2000/svg" xmlns:xlink="http://www.w3.org/1999/xlink" overflow="hidden"><defs><filter id="fx0" x="-10%" y="-10%" width="120%" height="120%" filterUnits="userSpaceOnUse" primitiveUnits="userSpaceOnUse"><feComponentTransfer color-interpolation-filters="sRGB"><feFuncR type="discrete" tableValues="0 0"/><feFuncG type="discrete" tableValues="0 0"/><feFuncB type="discrete" tableValues="0 0"/><feFuncA type="linear" slope="0.4" intercept="0"/></feComponentTransfer><feGaussianBlur stdDeviation="1.77778 1.77778"/></filter><clipPath id="clip1"><rect x="881" y="409" width="253" height="253"/></clipPath><clipPath id="clip2"><rect x="3" y="50" width="247" height="153"/></clipPath><clipPath id="clip3"><rect x="0" y="0" width="255" height="255"/></clipPath><clipPath id="clip4"><rect x="6" y="6" width="242" height="242"/></clipPath><clipPath id="clip5"><rect x="6" y="6" width="242" height="242"/></clipPath><clipPath id="clip6"><rect x="6" y="6" width="242" height="242"/></clipPath><clipPath id="clip7"><rect x="884" y="412" width="241" height="241"/></clipPath><clipPath id="clip8"><rect x="884" y="412" width="241" height="241"/></clipPath><clipPath id="clip9"><rect x="884" y="412" width="241" height="241"/></clipPath></defs><g clip-path="url(#clip1)" transform="translate(-881 -409)"><g clip-path="url(#clip2)" filter="url(#fx0)" transform="translate(880 408)"><g clip-path="url(#clip3)"><g clip-path="url(#clip4)"><g clip-path="url(#clip5)"><g clip-path="url(#clip6)"><path d="M95.3758 106.876C105.274 106.876 110.248 110.017 112.218 111.724 112.364 111.852 112.586 111.837 112.714 111.691 112.797 111.597 112.823 111.466 112.783 111.347 111.563 107.85 108.212 99.031 104.564 96.3398 100.746 93.3801 94.4118 92.3809 91.3065 96.5909 88.5023 100.389 90.5433 106.879 95.3758 106.876Z" fill="#B3324F"/><path d="M146.342 101.705C149.809 98.6213 154.232 96.8261 158.867 96.621 162.65 96.1867 163.664 90.9249 161.126 88.2036 158.314 85.1911 153.447 86.5417 150.726 89.2078 148.215 91.5575 146.415 98.3457 145.72 101.378 145.676 101.575 145.8 101.769 145.996 101.813 146.122 101.841 146.254 101.8 146.342 101.705Z" fill="#B3324F"/><path d="M107.388 131.016C109.712 130.277 111.775 128.888 113.335 127.015 77.7352 129.118 50.7607 139.085 50.7607 151.069 50.7607 164.581 85.0405 175.528 127.328 175.528 169.616 175.528 203.896 164.573 203.896 151.062 203.896 139.077 176.932 129.113 141.342 127.01 142.906 128.885 144.974 130.274 147.301 131.014 168.449 133.544 183.63 139.951 183.63 147.377L183.567 148.115 183.228 149.465C179.846 158.237 155.696 164.907 127.328 164.907 96.4503 164.907 71.0273 156.997 71.0273 147.384 71.0273 139.953 86.2229 133.544 107.388 131.016Z" fill="#B3324F"/><path d="M137.621 118.866C137.807 119.734 138.015 120.565 138.251 121.349 138.329 121.6 138.435 121.851 138.525 122.087 173.585 123.789 221.469 133.173 221.469 151.381 221.469 171.62 162.294 180.961 127.328 180.961 92.3633 180.961 33.1878 171.62 33.1878 151.381 33.1878 133.17 81.0891 123.786 116.162 122.087 116.25 121.836 116.358 121.602 116.433 121.349 116.684 120.565 116.88 119.734 117.063 118.866 58.0987 120.442 11.8493 135.515 11.8493 155.962 11.8493 177.582 63.5639 195.11 127.328 195.11 191.093 195.11 242.808 177.582 242.808 155.962 242.808 135.517 196.568 120.445 137.621 118.866Z" fill="#B3324F"/><path d="M148.785 134.912C148.062 134.757 147.341 134.601 146.588 134.461 140.745 133.343 135.854 129.365 133.569 123.872 132.281 120.366 131.626 116.66 131.634 112.926 131.448 98.554 134.769 93.0412 140.357 83.5217 142.39 80.5546 143.578 77.0905 143.792 73.5001 143.802 64.4194 136.449 57.0493 127.369 57.0368L127.311 57.0368C118.229 57.0478 110.875 64.4184 110.885 73.5001 111.098 77.0905 112.286 80.5551 114.319 83.5217 119.908 93.0412 123.229 98.554 123.043 112.926 123.05 116.661 122.394 120.367 121.105 123.872 118.821 129.364 113.931 133.342 108.089 134.461L105.892 134.912C105.405 135.018 104.918 135.118 104.449 135.229 103.655 135.412 102.897 135.605 102.169 135.806L101.444 136.007C101.125 136.1 100.818 136.198 100.512 136.293 92.3408 138.781 87.1618 142.373 87.1618 146.382 87.1618 153.884 105.154 159.964 127.328 159.964 149.503 159.964 167.495 153.884 167.495 146.382 167.495 142.366 162.326 138.781 154.155 136.293 153.848 136.198 153.542 136.1 153.221 136.007L152.498 135.806C151.767 135.605 151.012 135.412 150.218 135.229Z" fill="#B3324F"/></g></g></g></g></g><g clip-path="url(#clip7)"><g clip-path="url(#clip8)"><g clip-path="url(#clip9)"><path d="M972.547 512.048C982.446 512.048 987.419 515.188 989.39 516.895 989.536 517.023 989.758 517.009 989.886 516.863 989.968 516.769 989.995 516.637 989.955 516.519 988.735 513.022 985.383 504.203 981.736 501.511 977.917 498.552 971.583 497.552 968.478 501.762 965.674 505.561 967.715 512.05 972.547 512.048Z" fill="#B3324F"/><path d="M1023.51 506.876C1026.98 503.793 1031.4 501.998 1036.04 501.793 1039.82 501.358 1040.84 496.096 1038.3 493.375 1035.49 490.363 1030.62 491.713 1027.9 494.379 1025.39 496.729 1023.59 503.517 1022.89 506.55 1022.85 506.746 1022.97 506.941 1023.17 506.984 1023.29 507.013 1023.43 506.971 1023.51 506.876Z" fill="#B3324F"/><path d="M984.56 536.188C986.883 535.448 988.947 534.06 990.507 532.186 954.907 534.29 927.932 544.256 927.932 556.241 927.932 569.752 962.212 580.7 1004.5 580.7 1046.79 580.7 1081.07 569.745 1081.07 556.233 1081.07 544.249 1054.1 534.285 1018.51 532.181 1020.08 534.056 1022.15 535.445 1024.47 536.185 1045.62 538.716 1060.8 545.122 1060.8 552.548L1060.74 553.286 1060.4 554.637C1057.02 563.408 1032.87 570.078 1004.5 570.078 973.622 570.078 948.199 562.168 948.199 552.556 948.199 545.125 963.394 538.716 984.56 536.188Z" fill="#B3324F"/><path d="M1014.79 524.037C1014.98 524.906 1015.19 525.737 1015.42 526.52 1015.5 526.771 1015.61 527.022 1015.7 527.258 1050.76 528.96 1098.64 538.344 1098.64 556.552 1098.64 576.791 1039.47 586.133 1004.5 586.133 969.535 586.133 910.359 576.791 910.359 556.552 910.359 538.342 958.261 528.958 993.334 527.258 993.422 527.007 993.529 526.774 993.605 526.52 993.856 525.737 994.052 524.906 994.235 524.037 935.27 525.614 889.021 540.686 889.021 561.134 889.021 582.754 940.735 600.281 1004.5 600.281 1068.26 600.281 1119.98 582.754 1119.98 561.134 1119.98 540.689 1073.74 525.616 1014.79 524.037Z" fill="#B3324F"/><path d="M1025.96 540.084C1025.23 539.928 1024.51 539.773 1023.76 539.632 1017.92 538.514 1013.03 534.536 1010.74 529.043 1009.45 525.538 1008.8 521.832 1008.81 518.098 1008.62 503.726 1011.94 498.213 1017.53 488.693 1019.56 485.726 1020.75 482.262 1020.96 478.672 1020.97 469.591 1013.62 462.221 1004.54 462.208L1004.48 462.208C995.401 462.219 988.047 469.59 988.057 478.672 988.27 482.262 989.457 485.727 991.491 488.693 997.079 498.213 1000.4 503.726 1000.21 518.098 1000.22 521.832 999.565 525.538 998.277 529.043 995.993 534.536 991.103 538.514 985.26 539.632L983.064 540.084C982.577 540.189 982.09 540.29 981.62 540.4 980.827 540.584 980.069 540.777 979.341 540.978L978.615 541.179C978.296 541.271 977.99 541.369 977.684 541.465 969.512 543.953 964.333 547.545 964.333 551.554 964.333 559.055 982.326 565.135 1004.5 565.135 1026.67 565.135 1044.67 559.055 1044.67 551.554 1044.67 547.537 1039.5 543.953 1031.33 541.465 1031.02 541.369 1030.71 541.271 1030.39 541.179L1029.67 540.978C1028.94 540.777 1028.18 540.584 1027.39 540.4Z" fill="#B3324F"/></g></g></g></g></svg>