<svg width="253" height="253" xmlns="http://www.w3.org/2000/svg" xmlns:xlink="http://www.w3.org/1999/xlink" overflow="hidden"><defs><filter id="fx0" x="-10%" y="-10%" width="120%" height="120%" filterUnits="userSpaceOnUse" primitiveUnits="userSpaceOnUse"><feComponentTransfer color-interpolation-filters="sRGB"><feFuncR type="discrete" tableValues="0 0"/><feFuncG type="discrete" tableValues="0 0"/><feFuncB type="discrete" tableValues="0 0"/><feFuncA type="linear" slope="0.4" intercept="0"/></feComponentTransfer><feGaussianBlur stdDeviation="1.77778 1.77778"/></filter><clipPath id="clip1"><rect x="500" y="409" width="253" height="253"/></clipPath><clipPath id="clip2"><rect x="36" y="36" width="183" height="183"/></clipPath><clipPath id="clip3"><rect x="0" y="0" width="255" height="255"/></clipPath><clipPath id="clip4"><rect x="6" y="6" width="242" height="242"/></clipPath><clipPath id="clip5"><rect x="6" y="6" width="242" height="242"/></clipPath><clipPath id="clip6"><rect x="6" y="6" width="242" height="242"/></clipPath><clipPath id="clip7"><rect x="503" y="412" width="241" height="241"/></clipPath><clipPath id="clip8"><rect x="503" y="412" width="241" height="241"/></clipPath><clipPath id="clip9"><rect x="503" y="412" width="241" height="241"/></clipPath></defs><g clip-path="url(#clip1)" transform="translate(-500 -409)"><g clip-path="url(#clip2)" filter="url(#fx0)" transform="translate(499 408)"><g clip-path="url(#clip3)"><g clip-path="url(#clip4)"><g clip-path="url(#clip5)"><g clip-path="url(#clip6)"><path d="M76.4925 103.705C93.5907 98.0916 112.318 100.607 127.328 110.534 142.339 100.607 161.066 98.0916 178.164 103.705 178.564 101.215 178.774 98.6969 178.792 96.1742 178.792 67.7517 155.751 44.7106 127.328 44.7106 98.906 44.7106 75.8649 67.7517 75.8649 96.1742 75.883 98.6969 76.0926 101.215 76.4925 103.705Z" fill="#B3324F"/><path d="M183.512 114.124C178.537 129.526 167.481 142.224 152.91 149.269 153.525 152.717 153.836 156.211 153.838 159.713 153.841 176.679 146.521 192.821 133.755 203.997 141.635 208.696 150.639 211.177 159.813 211.176 188.222 211.187 211.26 188.166 211.271 159.758 211.279 140.54 200.573 122.92 183.512 114.073Z" fill="#B3324F"/><path d="M144.073 144.901C141.108 135.056 135.279 126.316 127.328 119.797 119.378 126.316 113.549 135.056 110.584 144.901 121.426 148.684 133.23 148.684 144.073 144.901Z" fill="#B3324F"/><path d="M94.8436 211.227C104.018 211.227 113.022 208.747 120.902 204.047 108.136 192.871 100.816 176.729 100.818 159.763 100.821 156.261 101.132 152.767 101.747 149.32 87.1758 142.274 76.1194 129.576 71.1453 114.174 45.9254 127.251 36.0821 158.297 49.1593 183.517 58.0058 200.578 75.6254 211.284 94.8436 211.277Z" fill="#B3324F"/><path d="M127.328 199.628C139.338 189.878 146.31 175.232 146.307 159.763 146.285 157.242 146.084 154.725 145.705 152.232 133.767 156.149 120.89 156.149 108.952 152.232 108.573 154.725 108.372 157.242 108.35 159.763 108.347 175.232 115.319 189.878 127.328 199.628Z" fill="#B3324F"/><path d="M176.558 111.136C162.389 106.227 146.778 107.806 133.881 115.454 141.915 122.507 147.884 131.609 151.152 141.788 163.374 135.373 172.521 124.336 176.558 111.136Z" fill="#B3324F"/><path d="M94.8436 108.299C89.1437 108.312 83.4853 109.271 78.0992 111.136 82.165 124.358 91.3612 135.399 103.63 141.788 106.898 131.609 112.867 122.507 120.902 115.454 113.015 110.773 104.014 108.302 94.8436 108.299Z" fill="#B3324F"/></g></g></g></g></g><g clip-path="url(#clip7)"><g clip-path="url(#clip8)"><g clip-path="url(#clip9)"><path d="M572.664 508.877C589.762 503.263 608.489 505.779 623.5 515.705 638.511 505.779 657.238 503.263 674.336 508.877 674.736 506.386 674.945 503.868 674.964 501.346 674.964 472.923 651.922 449.882 623.5 449.882 595.078 449.882 572.036 472.923 572.036 501.346 572.055 503.868 572.264 506.386 572.664 508.877Z" fill="#B3324F"/><path d="M679.683 519.295C674.709 534.697 663.653 547.396 649.081 554.441 649.697 557.888 650.008 561.383 650.01 564.884 650.013 581.851 642.692 597.993 629.927 609.168 637.806 613.868 646.81 616.349 655.985 616.348 684.393 616.359 707.432 593.338 707.443 564.929 707.451 545.711 696.744 528.092 679.683 519.245Z" fill="#B3324F"/><path d="M640.245 550.073C637.28 540.228 631.451 531.488 623.5 524.969 615.549 531.488 609.72 540.228 606.756 550.073 617.598 553.855 629.402 553.855 640.245 550.073Z" fill="#B3324F"/><path d="M591.015 616.398C600.19 616.399 609.194 613.918 617.073 609.218 604.308 598.043 596.987 581.901 596.99 564.935 596.992 561.433 597.303 557.938 597.919 554.491 583.347 547.446 572.291 534.748 567.317 519.345 542.097 532.423 532.254 563.469 545.331 588.688 554.177 605.749 571.797 616.456 591.015 616.448Z" fill="#B3324F"/><path d="M623.5 604.8C635.509 595.05 642.482 580.404 642.479 564.935 642.457 562.413 642.255 559.896 641.876 557.403 629.938 561.32 617.062 561.32 605.124 557.403 604.745 559.896 604.543 562.413 604.521 564.935 604.518 580.404 611.491 595.05 623.5 604.8Z" fill="#B3324F"/><path d="M672.729 516.308C658.561 511.398 642.95 512.978 630.052 520.626 638.087 527.679 644.056 536.781 647.324 546.96 659.545 540.545 668.693 529.508 672.729 516.308Z" fill="#B3324F"/><path d="M591.015 513.471C585.315 513.484 579.657 514.442 574.271 516.308 578.337 529.53 587.533 540.57 599.802 546.96 603.07 536.781 609.039 527.679 617.073 520.626 609.187 515.945 600.186 513.474 591.015 513.471Z" fill="#B3324F"/></g></g></g></g></svg>