<svg width="444" height="264" xmlns="http://www.w3.org/2000/svg" xmlns:xlink="http://www.w3.org/1999/xlink" overflow="hidden"><defs><filter id="fx0" x="-10%" y="-10%" width="120%" height="120%" filterUnits="userSpaceOnUse" primitiveUnits="userSpaceOnUse"><feComponentTransfer color-interpolation-filters="sRGB"><feFuncR type="discrete" tableValues="0 0"/><feFuncG type="discrete" tableValues="0 0"/><feFuncB type="discrete" tableValues="0 0"/><feFuncA type="linear" slope="0.4" intercept="0"/></feComponentTransfer><feGaussianBlur stdDeviation="1.77778 1.77778"/></filter><clipPath id="clip1"><rect x="853" y="222" width="444" height="264"/></clipPath><clipPath id="clip2"><rect x="19" y="31" width="403" height="182"/></clipPath><clipPath id="clip3"><rect x="0" y="0" width="445" height="266"/></clipPath><clipPath id="clip4"><rect x="6" y="6" width="232" height="232"/></clipPath><clipPath id="clip5"><rect x="6" y="6" width="232" height="232"/></clipPath><clipPath id="clip6"><rect x="6" y="6" width="232" height="232"/></clipPath><clipPath id="clip7"><rect x="206" y="27" width="232" height="232"/></clipPath><clipPath id="clip8"><rect x="206" y="27" width="232" height="232"/></clipPath><clipPath id="clip9"><rect x="206" y="27" width="232" height="232"/></clipPath><clipPath id="clip10"><rect x="857" y="225" width="231" height="231"/></clipPath><clipPath id="clip11"><rect x="857" y="225" width="231" height="231"/></clipPath><clipPath id="clip12"><rect x="857" y="225" width="231" height="231"/></clipPath><clipPath id="clip13"><rect x="1057" y="246" width="231" height="231"/></clipPath><clipPath id="clip14"><rect x="1057" y="246" width="231" height="231"/></clipPath><clipPath id="clip15"><rect x="1057" y="246" width="231" height="231"/></clipPath></defs><g clip-path="url(#clip1)" transform="translate(-853 -222)"><g clip-path="url(#clip2)" filter="url(#fx0)" transform="translate(853 221)"><g clip-path="url(#clip3)"><g clip-path="url(#clip4)"><g clip-path="url(#clip5)"><g clip-path="url(#clip6)"><path d="M208.967 40.513 35.7174 40.513C30.408 40.5284 26.1078 44.8287 26.0923 50.138L26.0923 165.638C26.1078 170.947 30.408 175.247 35.7174 175.263L103.092 175.263 103.092 189.701 79.0299 189.701 79.0299 204.138 165.655 204.138 165.655 189.701 141.592 189.701 141.592 175.263 208.967 175.263C214.277 175.247 218.577 170.947 218.592 165.638L218.592 50.138C218.577 44.8287 214.277 40.5287 208.967 40.513ZM104.296 160.826 40.5299 160.826 40.5299 111.498 104.296 111.498ZM104.296 104.279 40.5299 104.279 40.5299 54.9505 104.296 54.9505ZM204.155 160.826 111.514 160.826 111.514 54.9505 204.155 54.9505Z" fill="#660E51"/><path d="M182.499 118.709C182.554 116.612 181.561 114.627 179.852 113.412 176.043 110.429 171.625 108.32 166.911 107.233 163.377 106.169 159.719 105.576 156.03 105.467 152.332 105.478 148.66 106.074 145.148 107.233 140.501 108.505 136.119 110.598 132.208 113.412 130.549 114.669 129.571 116.628 129.561 118.709L129.561 131.95 182.498 131.95Z" fill="#660E51"/><path d="M169.264 88.6941C169.264 96.0033 163.339 101.928 156.03 101.928 148.721 101.928 142.796 96.0033 142.796 88.6941 142.796 81.385 148.721 75.4597 156.03 75.4597 163.339 75.4597 169.264 81.385 169.264 88.6941Z" fill="#660E51"/><path d="M88.6549 88.7889C88.6888 87.4987 88.0781 86.2765 87.0259 85.5292 84.6819 83.6937 81.9636 82.3955 79.0626 81.7266 76.8878 81.0723 74.6363 80.707 72.366 80.6399 70.0907 80.6469 67.8305 81.0136 65.6694 81.7266 62.8098 82.5098 60.1132 83.7976 57.7064 85.5292 56.6857 86.303 56.0834 87.5081 56.0776 88.7889L56.0776 96.9377 88.6549 96.9377Z" fill="#660E51"/><path d="M80.5128 70.3181C80.5128 74.8173 76.8655 78.4646 72.3663 78.4646 67.867 78.4646 64.2197 74.8173 64.2197 70.3181 64.2197 65.8188 67.867 62.1715 72.3663 62.1715 76.8655 62.1715 80.5128 65.8188 80.5128 70.3181Z" fill="#660E51"/><path d="M88.6549 145.458C88.6888 144.168 88.0781 142.946 87.0259 142.198 84.6819 140.363 81.9636 139.065 79.0626 138.395 76.8878 137.742 74.6363 137.376 72.366 137.309 70.0907 137.316 67.8305 137.683 65.6694 138.395 62.8098 139.179 60.1132 140.467 57.7064 142.198 56.6855 142.972 56.0834 144.177 56.0776 145.458L56.0776 153.607 88.6549 153.607Z" fill="#660E51"/><path d="M80.5128 126.987C80.5128 131.487 76.8655 135.134 72.3663 135.134 67.867 135.134 64.2197 131.487 64.2197 126.987 64.2197 122.488 67.867 118.841 72.3663 118.841 76.8655 118.841 80.5128 122.488 80.5128 126.987Z" fill="#660E51"/></g></g></g><g clip-path="url(#clip7)"><g clip-path="url(#clip8)"><g clip-path="url(#clip9)"><path d="M257.36 105.286C264.004 105.286 269.391 99.899 269.391 93.2544 269.391 86.6097 264.004 81.2231 257.36 81.2231 250.715 81.2231 245.328 86.6097 245.328 93.2544 245.328 99.899 250.715 105.286 257.36 105.286Z" fill="#660E51"/><path d="M273.048 132.548C274.085 133.297 275.331 133.701 276.61 133.703L293.453 133.703C296.776 133.703 299.469 131.01 299.469 127.688 299.469 124.366 296.776 121.672 293.453 121.672L278.583 121.672 267.129 113.274C264.628 109.838 260.479 108.002 256.253 108.462 250.027 109.236 245.387 114.581 245.497 120.854L245.497 155.36C245.497 162.004 250.883 167.391 257.528 167.391L269.391 167.391 269.391 167.391 283.828 167.391 283.828 197.998C283.828 201.321 286.522 204.014 289.844 204.014 293.166 204.014 295.86 201.321 295.86 197.998L295.86 161.303C295.86 157.981 293.166 155.288 289.844 155.288L269.391 155.288 269.391 129.829Z" fill="#660E51"/><path d="M387.297 105.286C393.942 105.286 399.328 99.899 399.328 93.2544 399.328 86.6097 393.942 81.2231 387.297 81.2231 380.653 81.2231 375.266 86.6097 375.266 93.2544 375.266 99.899 380.653 105.286 387.297 105.286Z" fill="#660E51"/><path d="M388.404 108.342C384.178 107.881 380.029 109.717 377.528 113.154L366.074 121.672 351.203 121.672C347.881 121.672 345.188 124.366 345.188 127.688 345.188 131.01 347.881 133.703 351.203 133.703L368.047 133.703C369.326 133.701 370.571 133.297 371.608 132.548L375.266 129.829 375.266 155.36 354.885 155.36C351.563 155.36 348.869 158.053 348.869 161.375L348.869 197.998C348.869 201.321 351.563 204.014 354.885 204.014 358.207 204.014 360.901 201.321 360.901 197.998L360.901 167.391 375.338 167.391 375.338 167.391 387.081 167.391C393.725 167.391 399.112 162.004 399.112 155.36L399.112 120.734C399.224 114.477 394.611 109.138 388.404 108.342Z" fill="#660E51"/><path d="M363.235 138.516 281.422 138.516C278.764 138.516 276.61 140.67 276.61 143.328 276.61 145.986 278.764 148.141 281.422 148.141L317.516 148.141 317.516 196.266 303.078 196.266 303.078 205.891 341.578 205.891 341.578 196.266 327.141 196.266 327.141 148.141 363.235 148.141C365.893 148.141 368.047 145.986 368.047 143.328 368.047 140.67 365.893 138.516 363.235 138.516Z" fill="#660E51"/><path d="M274.203 172.203 240.516 172.203 240.516 124.078C240.516 121.42 238.361 119.266 235.703 119.266 233.045 119.266 230.891 121.42 230.891 124.078L230.891 177.016C230.891 179.674 233.045 181.828 235.703 181.828L250.141 181.828 250.141 196.266 240.516 196.266 240.516 205.891 269.391 205.891 269.391 196.266 259.766 196.266 259.766 181.828 274.203 181.828C276.861 181.828 279.016 179.674 279.016 177.016 279.016 174.358 276.861 172.203 274.203 172.203Z" fill="#660E51"/><path d="M408.953 120.469C406.295 120.469 404.141 122.624 404.141 125.282L404.141 172.203 370.453 172.203C367.795 172.203 365.641 174.358 365.641 177.016 365.641 179.674 367.795 181.828 370.453 181.828L384.891 181.828 384.891 196.266 375.266 196.266 375.266 205.891 404.141 205.891 404.141 196.266 394.516 196.266 394.516 181.828 408.953 181.828C411.611 181.828 413.766 179.674 413.766 177.016L413.766 125.282C413.766 122.624 411.611 120.469 408.953 120.469Z" fill="#660E51"/></g></g></g></g></g><g clip-path="url(#clip10)"><g clip-path="url(#clip11)"><g clip-path="url(#clip12)"><path d="M1059.14 258.685 885.889 258.685C880.58 258.7 876.279 263 876.264 268.31L876.264 383.81C876.279 389.119 880.58 393.419 885.889 393.435L953.264 393.435 953.264 407.872 929.201 407.872 929.201 422.31 1015.83 422.31 1015.83 407.872 991.764 407.872 991.764 393.435 1059.14 393.435C1064.45 393.419 1068.75 389.119 1068.76 383.81L1068.76 268.31C1068.75 263 1064.45 258.7 1059.14 258.685ZM954.467 378.997 890.701 378.997 890.701 329.669 954.467 329.669ZM954.467 322.451 890.701 322.451 890.701 273.122 954.467 273.122ZM1054.33 378.997 961.686 378.997 961.686 273.122 1054.33 273.122Z" fill="#660E51"/><path d="M1032.67 336.88C1032.73 334.784 1031.73 332.798 1030.02 331.584 1026.21 328.601 1021.8 326.491 1017.08 325.404 1013.55 324.341 1009.89 323.748 1006.2 323.639 1002.5 323.65 998.831 324.246 995.32 325.404 990.673 326.677 986.29 328.77 982.379 331.584 980.721 332.841 979.742 334.799 979.732 336.88L979.732 350.122 1032.67 350.122Z" fill="#660E51"/><path d="M1019.44 306.866C1019.44 314.175 1013.51 320.1 1006.2 320.1 998.892 320.1 992.967 314.175 992.967 306.866 992.967 299.557 998.892 293.631 1006.2 293.631 1013.51 293.631 1019.44 299.557 1019.44 306.866Z" fill="#660E51"/><path d="M938.826 306.96C938.86 305.67 938.25 304.448 937.197 303.701 934.854 301.865 932.135 300.567 929.234 299.898 927.059 299.244 924.808 298.879 922.538 298.811 920.262 298.818 918.002 299.185 915.841 299.898 912.981 300.681 910.285 301.969 907.878 303.701 906.857 304.475 906.255 305.68 906.249 306.96L906.249 315.109 938.826 315.109Z" fill="#660E51"/><path d="M930.684 288.49C930.684 292.989 927.037 296.636 922.538 296.636 918.039 296.636 914.391 292.989 914.391 288.49 914.391 283.99 918.039 280.343 922.538 280.343 927.037 280.343 930.684 283.99 930.684 288.49Z" fill="#660E51"/><path d="M938.826 363.63C938.86 362.34 938.25 361.117 937.197 360.37 934.854 358.534 932.135 357.236 929.234 356.567 927.059 355.913 924.808 355.548 922.538 355.481 920.262 355.488 918.002 355.854 915.841 356.567 912.981 357.35 910.285 358.638 907.878 360.37 906.857 361.144 906.255 362.349 906.249 363.63L906.249 371.778 938.826 371.778Z" fill="#660E51"/><path d="M930.684 345.159C930.684 349.658 927.037 353.306 922.538 353.306 918.039 353.306 914.391 349.658 914.391 345.159 914.391 340.66 918.039 337.012 922.538 337.012 927.037 337.012 930.684 340.66 930.684 345.159Z" fill="#660E51"/></g></g></g><g clip-path="url(#clip13)"><g clip-path="url(#clip14)"><g clip-path="url(#clip15)"><path d="M1107.53 323.457C1114.18 323.457 1119.56 318.071 1119.56 311.426 1119.56 304.781 1114.18 299.395 1107.53 299.395 1100.89 299.395 1095.5 304.781 1095.5 311.426 1095.5 318.071 1100.89 323.457 1107.53 323.457Z" fill="#660E51"/><path d="M1123.22 350.72C1124.26 351.468 1125.5 351.872 1126.78 351.875L1143.62 351.875C1146.95 351.875 1149.64 349.182 1149.64 345.859 1149.64 342.537 1146.95 339.844 1143.62 339.844L1128.75 339.844 1117.3 331.446C1114.8 328.009 1110.65 326.173 1106.42 326.633 1100.2 327.408 1095.56 332.753 1095.67 339.026L1095.67 373.531C1095.67 380.176 1101.06 385.562 1107.7 385.562L1119.56 385.562 1119.56 385.562 1134 385.562 1134 416.17C1134 419.492 1136.69 422.186 1140.02 422.186 1143.34 422.186 1146.03 419.492 1146.03 416.17L1146.03 379.475C1146.03 376.152 1143.34 373.459 1140.02 373.459L1119.56 373.459 1119.56 348.001Z" fill="#660E51"/><path d="M1237.47 323.457C1244.11 323.457 1249.5 318.071 1249.5 311.426 1249.5 304.781 1244.11 299.395 1237.47 299.395 1230.82 299.395 1225.44 304.781 1225.44 311.426 1225.44 318.071 1230.82 323.457 1237.47 323.457Z" fill="#660E51"/><path d="M1238.58 326.513C1234.35 326.053 1230.2 327.889 1227.7 331.326L1216.25 339.844 1201.38 339.844C1198.05 339.844 1195.36 342.537 1195.36 345.859 1195.36 349.182 1198.05 351.875 1201.38 351.875L1218.22 351.875C1219.5 351.872 1220.74 351.468 1221.78 350.72L1225.44 348.001 1225.44 373.531 1205.06 373.531C1201.73 373.531 1199.04 376.225 1199.04 379.547L1199.04 416.17C1199.04 419.492 1201.73 422.186 1205.06 422.186 1208.38 422.186 1211.07 419.492 1211.07 416.17L1211.07 385.562 1225.51 385.562 1225.51 385.562 1237.25 385.562C1243.9 385.562 1249.28 380.176 1249.28 373.531L1249.28 338.905C1249.4 332.649 1244.78 327.31 1238.58 326.513Z" fill="#660E51"/><path d="M1213.41 356.688 1131.59 356.688C1128.94 356.688 1126.78 358.842 1126.78 361.5 1126.78 364.158 1128.94 366.312 1131.59 366.312L1167.69 366.312 1167.69 414.438 1153.25 414.438 1153.25 424.062 1191.75 424.062 1191.75 414.438 1177.31 414.438 1177.31 366.312 1213.41 366.312C1216.06 366.312 1218.22 364.158 1218.22 361.5 1218.22 358.842 1216.06 356.688 1213.41 356.688Z" fill="#660E51"/><path d="M1124.38 390.375 1090.69 390.375 1090.69 342.25C1090.69 339.592 1088.53 337.438 1085.88 337.438 1083.22 337.438 1081.06 339.592 1081.06 342.25L1081.06 395.188C1081.06 397.845 1083.22 400 1085.88 400L1100.31 400 1100.31 414.438 1090.69 414.438 1090.69 424.062 1119.56 424.062 1119.56 414.438 1109.94 414.438 1109.94 400 1124.38 400C1127.03 400 1129.19 397.845 1129.19 395.188 1129.19 392.53 1127.03 390.375 1124.38 390.375Z" fill="#660E51"/><path d="M1259.12 338.641C1256.47 338.641 1254.31 340.795 1254.31 343.453L1254.31 390.375 1220.62 390.375C1217.97 390.375 1215.81 392.53 1215.81 395.188 1215.81 397.845 1217.97 400 1220.62 400L1235.06 400 1235.06 414.438 1225.44 414.438 1225.44 424.062 1254.31 424.062 1254.31 414.438 1244.69 414.438 1244.69 400 1259.12 400C1261.78 400 1263.94 397.845 1263.94 395.188L1263.94 343.453C1263.94 340.795 1261.78 338.641 1259.12 338.641Z" fill="#660E51"/></g></g></g></g></svg>